<?xml version="1.0" encoding="UTF-8" standalone="no"?>
<!DOCTYPE svg PUBLIC "-//W3C//DTD SVG 1.1//EN" "http://www.w3.org/Graphics/SVG/1.1/DTD/svg11.dtd">
<svg width="100%" height="100%" viewBox="0 0 3600 2600" version="1.1" xmlns="http://www.w3.org/2000/svg" xmlns:xlink="http://www.w3.org/1999/xlink" xml:space="preserve" xmlns:serif="http://www.serif.com/" style="fill-rule:evenodd;clip-rule:evenodd;stroke-linecap:round;stroke-miterlimit:9;">
    <rect id="Background" x="0" y="0" width="3600" height="2600" style="fill:white;stroke:white;stroke-width:10px;stroke-dasharray:20.833,20.833,0,0,0,0;"/>
    <g id="Data">
        <g id="Baseline-Empty-State-Chart" serif:id="Baseline Empty State Chart">
            <path d="M300,2200C318.454,2180.175 377,2164 377,2164C451.917,2153.342 444.992,1550.948 485,1554C510.85,1555.972 544.193,1906.967 581,1975C616.916,2074.79 790.385,2077.626 934,2023C1099.956,1959.876 1159.692,1838.16 1521,1725C1733.583,1658.42 2102.275,1650.465 2190,1705C2287.16,1765.4 2288.258,1956.278 2437,2111C2499.816,2176.341 2572.929,2155.735 2720,2162C2804.475,2165.598 2847.705,2191.234 2876,2221" style="fill:none;stroke:rgb(10,29,87);stroke-width:10px;stroke-linejoin:round;stroke-miterlimit:1.5;"/>
        </g>
        <g id="High-Resistance-Full-State-Chart" serif:id="High Resistance Full State Chart">
            <path d="M300,2200L475.126,1261.457C473.014,1262.239 471.211,1264.482 469.225,1267.553C467.62,1270.037 464.239,1270.788 461.681,1269.23C459.122,1267.672 458.348,1264.391 459.953,1261.908C464.299,1255.184 469.206,1251.62 474.025,1250.773C477.662,1250.134 481.973,1251.735 485.618,1257.309C487.236,1259.784 486.48,1263.069 483.93,1264.64C481.379,1266.211 477.995,1265.477 476.376,1263.002C476.013,1262.446 475.475,1261.835 475.126,1261.457ZM2993.546,2217.954C2995.847,2219.854 2996.126,2223.209 2994.168,2225.442C2992.211,2227.675 2988.754,2227.945 2986.454,2226.046C2983.623,2223.708 2980.836,2221.298 2978.083,2218.831C2975.863,2216.843 2975.725,2213.479 2977.774,2211.325C2979.823,2209.171 2983.288,2209.037 2985.508,2211.026C2988.152,2213.395 2990.828,2215.71 2993.546,2217.954ZM2969.991,2196.329C2972.109,2198.419 2972.079,2201.785 2969.926,2203.841C2967.772,2205.896 2964.304,2205.868 2962.186,2203.777C2957.057,2198.715 2951.98,2193.564 2946.881,2188.45C2944.781,2186.343 2944.838,2182.977 2947.009,2180.939C2949.18,2178.901 2952.647,2178.956 2954.748,2181.063C2959.826,2186.156 2964.882,2191.287 2969.991,2196.329ZM2939.172,2165.821C2941.34,2167.863 2941.391,2171.228 2939.288,2173.332C2937.184,2175.435 2933.716,2175.486 2931.549,2173.444C2926.357,2168.553 2921.068,2163.825 2915.605,2159.389C2913.288,2157.509 2912.98,2154.156 2914.918,2151.907C2916.856,2149.659 2920.311,2149.36 2922.628,2151.241C2928.296,2155.843 2933.785,2160.746 2939.172,2165.821ZM2904.5,2138.145C2907.034,2139.74 2907.758,2143.032 2906.115,2145.492C2904.472,2147.952 2901.08,2148.654 2898.545,2147.059C2892.666,2143.36 2886.533,2140.089 2880.062,2137.383C2877.288,2136.223 2876.005,2133.096 2877.2,2130.403C2878.395,2127.711 2881.618,2126.467 2884.392,2127.627C2891.431,2130.569 2898.105,2134.122 2904.5,2138.145ZM2862.361,2121.132C2865.32,2121.721 2867.229,2124.531 2866.623,2127.402C2866.016,2130.274 2863.121,2132.128 2860.162,2131.539C2853.495,2130.212 2846.388,2129.254 2838.987,2128.5C2835.983,2128.193 2833.8,2125.578 2834.115,2122.662C2834.431,2119.747 2837.126,2117.628 2840.13,2117.935C2847.9,2118.727 2855.361,2119.739 2862.361,2121.132ZM2818.051,2116.174C2821.065,2116.37 2823.348,2118.904 2823.146,2121.829C2822.944,2124.754 2820.334,2126.969 2817.32,2126.773C2810.111,2126.305 2802.771,2125.884 2795.408,2125.392C2792.394,2125.19 2790.116,2122.652 2790.324,2119.728C2790.531,2116.803 2793.146,2114.592 2796.16,2114.794C2803.516,2115.285 2810.849,2115.706 2818.051,2116.174ZM2774.491,2113.02C2777.495,2113.329 2779.676,2115.946 2779.358,2118.862C2779.04,2121.777 2776.343,2123.893 2773.339,2123.585C2765.832,2122.813 2758.414,2121.845 2751.197,2120.557C2748.227,2120.027 2746.258,2117.255 2746.804,2114.372C2747.351,2111.489 2750.206,2109.578 2753.177,2110.109C2760.124,2111.348 2767.265,2112.278 2774.491,2113.02ZM2732.57,2105.186C2735.445,2106.085 2737.027,2109.08 2736.1,2111.87C2735.174,2114.661 2732.087,2116.196 2729.212,2115.297C2721.723,2112.954 2714.628,2110.056 2708.071,2106.451C2705.443,2105.005 2704.518,2101.761 2706.007,2099.211C2707.496,2096.66 2710.838,2095.763 2713.466,2097.208C2719.39,2100.465 2725.805,2103.07 2732.57,2105.186ZM2696.775,2085.183C2699.046,2087.115 2699.274,2090.474 2697.283,2092.679C2695.292,2094.883 2691.832,2095.104 2689.56,2093.172C2683.999,2088.442 2678.59,2083.465 2673.327,2078.252C2671.212,2076.158 2671.247,2072.792 2673.404,2070.74C2675.562,2068.689 2679.03,2068.722 2681.144,2070.816C2686.212,2075.835 2691.42,2080.629 2696.775,2085.183ZM2666.589,2055.365C2668.552,2057.593 2668.281,2060.949 2665.985,2062.854C2663.688,2064.758 2660.231,2064.495 2658.268,2062.267C2653.496,2056.847 2648.851,2051.223 2644.326,2045.404C2642.507,2043.065 2642.987,2039.731 2645.398,2037.965C2647.809,2036.199 2651.244,2036.665 2653.063,2039.005C2657.453,2044.65 2661.959,2050.107 2666.589,2055.365ZM2640.5,2021.893C2642.188,2024.324 2641.524,2027.628 2639.019,2029.266C2636.513,2030.904 2633.109,2030.259 2631.422,2027.828C2627.334,2021.938 2623.351,2015.881 2619.467,2009.668C2617.9,2007.161 2618.725,2003.892 2621.307,2002.371C2623.889,2000.851 2627.258,2001.651 2628.825,2004.157C2632.618,2010.225 2636.508,2016.14 2640.5,2021.893ZM2617.959,1985.906C2619.416,1988.474 2618.451,1991.707 2615.806,1993.121C2613.16,1994.536 2609.829,1993.599 2608.371,1991.031C2604.848,1984.822 2601.41,1978.479 2598.053,1972.009C2596.695,1969.391 2597.782,1966.195 2600.48,1964.876C2603.178,1963.558 2606.471,1964.613 2607.83,1967.232C2611.125,1973.583 2614.5,1979.811 2617.959,1985.906ZM2598.366,1948.208C2599.636,1950.868 2598.441,1954.028 2595.701,1955.26C2592.96,1956.492 2589.704,1955.333 2588.434,1952.673C2585.367,1946.246 2582.37,1939.712 2579.44,1933.076C2578.25,1930.381 2579.538,1927.256 2582.314,1926.101C2585.091,1924.946 2588.311,1926.197 2589.5,1928.891C2592.389,1935.432 2595.343,1941.873 2598.366,1948.208ZM2581.172,1909.329C2582.29,1912.052 2580.92,1915.144 2578.114,1916.229C2575.308,1917.315 2572.122,1915.985 2571.004,1913.262C2568.303,1906.684 2565.659,1900.019 2563.071,1893.273C2562.016,1890.526 2563.458,1887.465 2566.289,1886.442C2569.12,1885.418 2572.274,1886.818 2573.328,1889.565C2575.888,1896.235 2578.501,1902.825 2581.172,1909.329ZM2565.916,1869.629C2566.913,1872.396 2565.408,1875.428 2562.557,1876.396C2559.705,1877.363 2556.581,1875.902 2555.584,1873.135C2553.175,1866.449 2550.814,1859.694 2548.498,1852.875C2547.552,1850.091 2549.113,1847.085 2551.982,1846.167C2554.851,1845.249 2557.947,1846.764 2558.893,1849.548C2561.189,1856.307 2563.529,1863.002 2565.916,1869.629ZM2552.217,1829.347C2553.117,1832.145 2551.507,1835.126 2548.624,1836C2545.74,1836.874 2542.669,1835.311 2541.769,1832.512C2539.593,1825.749 2537.457,1818.93 2535.356,1812.063C2534.497,1809.252 2536.15,1806.293 2539.046,1805.459C2541.941,1804.625 2544.99,1806.23 2545.85,1809.04C2547.935,1815.859 2550.057,1822.63 2552.217,1829.347ZM2539.757,1788.644C2540.58,1791.465 2538.889,1794.404 2535.983,1795.203C2533.077,1796.002 2530.049,1794.361 2529.226,1791.54C2527.234,1784.72 2525.275,1777.857 2523.344,1770.959C2522.552,1768.129 2524.276,1765.209 2527.191,1764.44C2530.106,1763.672 2533.116,1765.345 2533.907,1768.174C2535.827,1775.035 2537.776,1781.861 2539.757,1788.644ZM2528.271,1747.638C2529.035,1750.475 2527.282,1753.379 2524.36,1754.121C2521.438,1754.862 2518.445,1753.161 2517.681,1750.325C2515.832,1743.462 2514.009,1736.569 2512.209,1729.651C2511.469,1726.809 2513.246,1723.918 2516.174,1723.2C2519.103,1722.482 2522.081,1724.207 2522.821,1727.049C2524.614,1733.939 2526.43,1740.804 2528.271,1747.638ZM2517.532,1706.416C2518.251,1709.263 2516.453,1712.141 2513.52,1712.839C2510.586,1713.537 2507.62,1711.792 2506.901,1708.945C2505.16,1702.052 2503.438,1695.138 2501.733,1688.21C2501.031,1685.359 2502.846,1682.491 2505.784,1681.81C2508.722,1681.129 2511.677,1682.891 2512.379,1685.742C2514.079,1692.65 2515.796,1699.542 2517.532,1706.416ZM2507.339,1665.037C2508.026,1667.892 2506.197,1670.751 2503.255,1671.419C2500.314,1672.086 2497.368,1670.311 2496.68,1667.456C2495.014,1660.541 2493.362,1653.615 2491.721,1646.686C2491.044,1643.828 2492.885,1640.976 2495.828,1640.319C2498.772,1639.662 2501.712,1641.449 2502.388,1644.306C2504.026,1651.223 2505.676,1658.135 2507.339,1665.037ZM2497.506,1623.554C2498.175,1626.413 2496.326,1629.26 2493.38,1629.909C2490.435,1630.558 2487.5,1628.764 2486.832,1625.905C2485.211,1618.975 2483.598,1612.045 2481.992,1605.12C2481.328,1602.26 2483.182,1599.415 2486.129,1598.771C2489.075,1598.127 2492.007,1599.926 2492.67,1602.786C2494.275,1609.705 2495.887,1616.629 2497.506,1623.554ZM2487.859,1582.005C2488.52,1584.866 2486.664,1587.709 2483.717,1588.351C2480.77,1588.993 2477.84,1587.192 2477.179,1584.332C2475.574,1577.392 2473.972,1570.463 2472.371,1563.549C2471.709,1560.689 2473.564,1557.844 2476.511,1557.202C2479.458,1556.559 2482.388,1558.359 2483.051,1561.219C2484.652,1568.135 2486.254,1575.065 2487.859,1582.005ZM2478.224,1540.433C2478.89,1543.292 2477.039,1546.139 2474.093,1546.786C2471.147,1547.432 2468.214,1545.636 2467.548,1542.777C2465.93,1535.835 2464.31,1528.914 2462.685,1522.019C2462.011,1519.161 2463.855,1516.31 2466.799,1515.656C2469.744,1515.003 2472.681,1516.792 2473.355,1519.65C2474.982,1526.554 2476.604,1533.483 2478.224,1540.433ZM2468.42,1498.873C2469.104,1501.728 2467.271,1504.585 2464.329,1505.249C2461.386,1505.913 2458.442,1504.134 2457.758,1501.279C2456.097,1494.342 2454.427,1487.436 2452.745,1480.567C2452.047,1477.715 2453.866,1474.849 2456.805,1474.172C2459.744,1473.494 2462.697,1475.26 2463.395,1478.112C2465.08,1484.997 2466.754,1491.919 2468.42,1498.873ZM2458.253,1457.372C2458.969,1460.22 2457.167,1463.096 2454.233,1463.791C2451.298,1464.486 2448.335,1462.738 2447.619,1459.89C2445.878,1452.965 2444.123,1446.084 2442.35,1439.252C2441.612,1436.409 2443.391,1433.52 2446.32,1432.804C2449.249,1432.088 2452.226,1433.815 2452.964,1436.657C2454.744,1443.515 2456.506,1450.422 2458.253,1457.372ZM2447.498,1415.978C2448.262,1418.814 2446.51,1421.719 2443.588,1422.461C2440.665,1423.202 2437.672,1421.502 2436.908,1418.666C2435.049,1411.764 2433.168,1404.921 2431.261,1398.141C2430.465,1395.313 2432.185,1392.39 2435.099,1391.618C2438.013,1390.846 2441.025,1392.516 2441.82,1395.344C2443.737,1402.16 2445.629,1409.04 2447.498,1415.978ZM2435.891,1374.763C2436.724,1377.581 2435.042,1380.525 2432.138,1381.332C2429.235,1382.14 2426.201,1380.508 2425.369,1377.69C2423.343,1370.826 2421.285,1364.038 2419.193,1357.332C2418.318,1354.526 2419.955,1351.558 2422.846,1350.709C2425.737,1349.86 2428.794,1351.448 2429.67,1354.254C2431.777,1361.01 2433.85,1367.849 2435.891,1374.763ZM2423.105,1333.832C2424.03,1336.622 2422.447,1339.617 2419.571,1340.515C2416.696,1341.413 2413.61,1339.876 2412.685,1337.086C2410.43,1330.284 2408.134,1323.578 2405.791,1316.976C2404.808,1314.204 2406.328,1311.179 2409.184,1310.225C2412.04,1309.27 2415.157,1310.746 2416.141,1313.517C2418.507,1320.187 2420.827,1326.96 2423.105,1333.832ZM2408.713,1293.341C2409.764,1296.09 2408.318,1299.149 2405.486,1300.169C2402.654,1301.189 2399.502,1299.786 2398.451,1297.038C2395.888,1290.335 2393.27,1283.755 2390.591,1277.308C2389.462,1274.589 2390.819,1271.492 2393.621,1270.396C2396.422,1269.3 2399.613,1270.617 2400.743,1273.336C2403.459,1279.873 2406.114,1286.545 2408.713,1293.341ZM2392.142,1253.55C2393.363,1256.231 2392.111,1259.37 2389.349,1260.555C2386.586,1261.74 2383.351,1260.525 2382.131,1257.844C2379.153,1251.304 2376.102,1244.924 2372.972,1238.714C2371.645,1236.081 2372.77,1232.897 2375.483,1231.609C2378.197,1230.321 2381.477,1231.413 2382.805,1234.046C2385.996,1240.378 2389.107,1246.883 2392.142,1253.55ZM2372.604,1214.91C2374.056,1217.481 2373.083,1220.712 2370.434,1222.121C2367.785,1223.53 2364.456,1222.586 2363.005,1220.015C2359.47,1213.754 2355.838,1207.702 2352.1,1201.872C2350.504,1199.383 2351.291,1196.105 2353.855,1194.556C2356.42,1193.007 2359.798,1193.77 2361.393,1196.259C2365.236,1202.253 2368.971,1208.474 2372.604,1214.91ZM2349.003,1178.256C2350.766,1180.636 2350.205,1183.958 2347.753,1185.669C2345.3,1187.38 2341.877,1186.836 2340.114,1184.456C2335.843,1178.688 2331.441,1173.195 2326.897,1167.994C2324.943,1165.758 2325.228,1162.403 2327.532,1160.507C2329.835,1158.611 2333.292,1158.887 2335.245,1161.123C2339.975,1166.537 2344.558,1172.253 2349.003,1178.256ZM2319.935,1145.169C2322.1,1147.213 2322.148,1150.579 2320.042,1152.68C2317.936,1154.781 2314.468,1154.828 2312.303,1152.784C2307.121,1147.892 2301.767,1143.355 2296.228,1139.196C2293.838,1137.402 2293.399,1134.063 2295.248,1131.745C2297.096,1129.426 2300.536,1129 2302.925,1130.794C2308.787,1135.195 2314.453,1139.993 2319.935,1145.169ZM2284.174,1118.479C2286.782,1119.958 2287.661,1123.214 2286.137,1125.745C2284.613,1128.276 2281.258,1129.129 2278.65,1127.65C2272.542,1124.185 2266.224,1121.144 2259.683,1118.552C2256.887,1117.443 2255.544,1114.34 2256.686,1111.626C2257.828,1108.912 2261.025,1107.608 2263.822,1108.717C2270.84,1111.498 2277.62,1114.76 2284.174,1118.479ZM2242.221,1101.881C2245.153,1102.586 2246.944,1105.469 2246.217,1108.314C2245.491,1111.16 2242.52,1112.897 2239.589,1112.192C2232.858,1110.574 2225.909,1109.391 2218.732,1108.664C2215.728,1108.359 2213.544,1105.745 2213.857,1102.829C2214.171,1099.914 2216.865,1097.794 2219.869,1098.098C2227.561,1098.877 2235.008,1100.146 2242.221,1101.881ZM2197.849,1096.372C2200.86,1096.6 2203.114,1099.158 2202.879,1102.08C2202.645,1105.003 2200.009,1107.191 2196.998,1106.963C2189.721,1106.412 2182.427,1105.862 2175.117,1105.312C2172.106,1105.085 2169.85,1102.528 2170.084,1099.606C2170.317,1096.683 2172.952,1094.494 2175.963,1094.72C2183.274,1095.27 2190.57,1095.821 2197.849,1096.372ZM2154.08,1093.081C2157.091,1093.305 2159.349,1095.861 2159.117,1098.784C2158.886,1101.707 2156.252,1103.897 2153.241,1103.673C2145.96,1103.129 2138.666,1102.588 2131.361,1102.049C2128.349,1101.826 2126.09,1099.272 2126.319,1096.349C2126.548,1093.426 2129.179,1091.234 2132.191,1091.456C2139.499,1091.995 2146.796,1092.537 2154.08,1093.081ZM2110.299,1089.85C2113.311,1090.069 2115.573,1092.621 2115.347,1095.544C2115.12,1098.468 2112.491,1100.663 2109.479,1100.443C2102.194,1099.912 2094.899,1099.385 2087.598,1098.861C2084.586,1098.644 2082.321,1096.095 2082.544,1093.172C2082.767,1090.248 2085.393,1088.05 2088.406,1088.266C2095.71,1088.79 2103.009,1089.319 2110.299,1089.85ZM2066.51,1086.709C2069.523,1086.921 2071.791,1089.467 2071.572,1092.391C2071.353,1095.315 2068.73,1097.516 2065.717,1097.304C2058.426,1096.79 2051.131,1096.281 2043.834,1095.777C2040.821,1095.569 2038.548,1093.026 2038.763,1090.101C2038.977,1087.177 2041.597,1084.972 2044.61,1085.18C2051.913,1085.684 2059.214,1086.194 2066.51,1086.709ZM2022.708,1083.685C2025.721,1083.888 2027.998,1086.427 2027.788,1089.352C2027.579,1092.276 2024.962,1094.486 2021.949,1094.282C2014.653,1093.79 2007.356,1093.304 2000.062,1092.825C1997.048,1092.627 1994.767,1090.092 1994.971,1087.167C1995.175,1084.242 1997.787,1082.028 2000.801,1082.226C2008.102,1082.706 2015.405,1083.192 2022.708,1083.685ZM1978.892,1080.808C1981.906,1081 1984.192,1083.531 1983.994,1086.456C1983.796,1089.381 1981.188,1091.6 1978.174,1091.408C1970.873,1090.943 1963.575,1090.485 1956.283,1090.035C1953.269,1089.85 1950.977,1087.324 1951.168,1084.398C1951.36,1081.472 1953.962,1079.248 1956.977,1079.434C1964.277,1079.883 1971.582,1080.342 1978.892,1080.808ZM1935.06,1078.108C1938.075,1078.287 1940.373,1080.808 1940.189,1083.734C1940.004,1086.66 1937.407,1088.89 1934.392,1088.711C1927.085,1088.278 1919.786,1087.854 1912.498,1087.44C1909.482,1087.268 1907.178,1084.753 1907.354,1081.827C1907.531,1078.9 1910.122,1076.663 1913.138,1076.835C1920.435,1077.249 1927.744,1077.674 1935.06,1078.108ZM1891.209,1075.618C1894.225,1075.781 1896.537,1078.29 1896.369,1081.217C1896.201,1084.144 1893.616,1086.388 1890.6,1086.225C1883.287,1085.829 1875.987,1085.444 1868.701,1085.071C1865.684,1084.917 1863.364,1082.414 1863.524,1079.487C1863.683,1076.559 1866.261,1074.308 1869.277,1074.463C1876.574,1074.836 1883.885,1075.222 1891.209,1075.618ZM1847.339,1073.373C1850.356,1073.518 1852.684,1076.013 1852.535,1078.941C1852.385,1081.869 1849.815,1084.129 1846.798,1083.984C1839.479,1083.632 1832.177,1083.293 1824.894,1082.967C1821.877,1082.832 1819.54,1080.345 1819.679,1077.417C1819.818,1074.488 1822.38,1072.22 1825.398,1072.355C1832.693,1072.681 1840.008,1073.021 1847.339,1073.373ZM1803.451,1071.414C1806.469,1071.538 1808.816,1074.016 1808.688,1076.945C1808.56,1079.874 1806.007,1082.152 1802.989,1082.028C1795.663,1081.727 1788.36,1081.441 1781.081,1081.17C1778.063,1081.058 1775.706,1078.589 1775.822,1075.659C1775.937,1072.73 1778.482,1070.443 1781.5,1070.555C1788.794,1070.826 1796.112,1071.112 1803.451,1071.414ZM1759.542,1069.784C1762.561,1069.884 1764.929,1072.343 1764.826,1075.273C1764.724,1078.203 1762.189,1080.501 1759.17,1080.401C1751.839,1080.159 1744.534,1079.934 1737.259,1079.727C1734.24,1079.641 1731.86,1077.192 1731.949,1074.262C1732.038,1071.332 1734.561,1069.022 1737.58,1069.108C1744.872,1069.316 1752.193,1069.542 1759.542,1069.784ZM1715.614,1068.535C1718.633,1068.607 1721.025,1071.044 1720.952,1073.975C1720.878,1076.905 1718.367,1079.227 1715.347,1079.155C1708.009,1078.982 1700.704,1078.828 1693.434,1078.693C1690.414,1078.638 1688.009,1076.213 1688.066,1073.282C1688.124,1070.351 1690.622,1068.016 1693.642,1068.072C1700.931,1068.207 1708.256,1068.361 1715.614,1068.535ZM1671.665,1067.728C1674.685,1067.766 1677.105,1070.178 1677.065,1073.109C1677.025,1076.04 1674.541,1078.389 1671.52,1078.35C1664.175,1078.256 1656.87,1078.183 1649.608,1078.134C1646.587,1078.114 1644.152,1075.717 1644.173,1072.786C1644.194,1069.854 1646.664,1067.491 1649.684,1067.511C1656.969,1067.561 1664.297,1067.633 1671.665,1067.728ZM1627.699,1067.433C1630.719,1067.434 1633.171,1069.814 1633.17,1072.746C1633.169,1075.678 1630.717,1078.057 1627.696,1078.056C1620.345,1078.055 1613.041,1078.078 1605.788,1078.128C1602.767,1078.148 1600.298,1075.785 1600.277,1072.854C1600.255,1069.922 1602.69,1067.525 1605.711,1067.505C1612.991,1067.455 1620.321,1067.431 1627.699,1067.433ZM1583.722,1067.739C1586.742,1067.695 1589.231,1070.039 1589.276,1072.97C1589.321,1075.901 1586.906,1078.317 1583.886,1078.361C1576.53,1078.468 1569.23,1078.604 1561.989,1078.77C1558.97,1078.839 1556.46,1076.516 1556.389,1073.585C1556.318,1070.654 1558.711,1068.219 1561.731,1068.149C1569.003,1067.983 1576.334,1067.846 1583.722,1067.739ZM1539.74,1068.753C1542.759,1068.656 1545.291,1070.956 1545.391,1073.886C1545.491,1076.816 1543.121,1079.273 1540.102,1079.37C1532.742,1079.606 1525.449,1079.876 1518.227,1080.18C1515.209,1080.307 1512.653,1078.033 1512.522,1075.104C1512.391,1072.175 1514.734,1069.694 1517.752,1069.567C1525.012,1069.261 1532.342,1068.99 1539.74,1068.753ZM1495.768,1070.613C1498.784,1070.452 1501.367,1072.699 1501.532,1075.626C1501.698,1078.553 1499.383,1081.06 1496.367,1081.22C1489.006,1081.612 1481.726,1082.042 1474.529,1082.513C1471.515,1082.711 1468.903,1080.496 1468.7,1077.571C1468.497,1074.646 1470.779,1072.111 1473.792,1071.914C1481.034,1071.44 1488.361,1071.007 1495.768,1070.613ZM1451.829,1073.499C1454.839,1073.261 1457.483,1075.44 1457.728,1078.361C1457.973,1081.283 1455.728,1083.849 1452.718,1084.087C1445.361,1084.669 1438.101,1085.297 1430.942,1085.972C1427.935,1086.256 1425.257,1084.117 1424.965,1081.2C1424.672,1078.282 1426.876,1075.683 1429.882,1075.399C1437.097,1074.718 1444.414,1074.085 1451.829,1073.499ZM1407.962,1077.653C1410.963,1077.318 1413.679,1079.41 1414.024,1082.323C1414.369,1085.235 1412.213,1087.871 1409.212,1088.206C1401.869,1089.026 1394.643,1089.901 1387.542,1090.833C1384.549,1091.226 1381.79,1089.186 1381.385,1086.281C1380.98,1083.376 1383.082,1080.699 1386.075,1080.306C1393.247,1079.364 1400.545,1078.48 1407.962,1077.653ZM1364.236,1083.413C1367.22,1082.954 1370.026,1084.932 1370.499,1087.828C1370.972,1090.723 1368.934,1093.446 1365.95,1093.905C1358.637,1095.031 1351.472,1096.224 1344.462,1097.487C1341.492,1098.022 1338.633,1096.117 1338.082,1093.235C1337.53,1090.352 1339.494,1087.578 1342.464,1087.042C1349.567,1085.762 1356.827,1084.553 1364.236,1083.413ZM1320.782,1091.277C1323.733,1090.653 1326.651,1092.473 1327.294,1095.337C1327.937,1098.201 1326.062,1101.033 1323.111,1101.657C1315.863,1103.189 1308.806,1104.806 1301.948,1106.513C1299.022,1107.241 1296.037,1105.526 1295.287,1102.686C1294.537,1099.847 1296.303,1096.95 1299.229,1096.222C1306.214,1094.484 1313.401,1092.837 1320.782,1091.277ZM1277.86,1102.012C1280.75,1101.16 1283.809,1102.745 1284.687,1105.55C1285.565,1108.355 1283.931,1111.325 1281.041,1112.177C1273.935,1114.272 1267.083,1116.48 1260.497,1118.805C1257.658,1119.807 1254.515,1118.384 1253.483,1115.629C1252.45,1112.875 1253.916,1109.824 1256.755,1108.822C1263.521,1106.433 1270.559,1104.165 1277.86,1102.012ZM1236.045,1116.882C1238.807,1115.696 1242.042,1116.91 1243.264,1119.591C1244.486,1122.272 1243.235,1125.412 1240.472,1126.597C1233.69,1129.509 1227.265,1132.575 1221.214,1135.805C1218.567,1137.217 1215.236,1136.279 1213.781,1133.71C1212.325,1131.141 1213.293,1127.909 1215.939,1126.496C1222.257,1123.124 1228.964,1119.921 1236.045,1116.882ZM1196.937,1138.811C1199.299,1136.984 1202.745,1137.362 1204.628,1139.654C1206.51,1141.947 1206.121,1145.292 1203.759,1147.119C1198.461,1151.216 1193.236,1155.863 1188.074,1161.018C1185.969,1163.12 1182.501,1163.168 1180.335,1161.125C1178.169,1159.082 1178.119,1155.716 1180.224,1153.614C1185.723,1148.123 1191.293,1143.176 1196.937,1138.811ZM1165.374,1169.94C1167.274,1167.66 1170.723,1167.306 1173.071,1169.15C1175.42,1170.993 1175.785,1174.34 1173.885,1176.62C1169.522,1181.857 1165.202,1187.444 1160.92,1193.356C1159.183,1195.754 1155.767,1196.333 1153.296,1194.647C1150.824,1192.961 1150.228,1189.646 1151.965,1187.247C1156.393,1181.133 1160.862,1175.356 1165.374,1169.94ZM1139.675,1205.221C1141.283,1202.739 1144.664,1201.992 1147.222,1203.552C1149.779,1205.112 1150.549,1208.394 1148.941,1210.876C1145.188,1216.669 1141.463,1222.702 1137.762,1228.957C1136.258,1231.499 1132.91,1232.378 1130.291,1230.918C1127.671,1229.459 1126.766,1226.21 1128.27,1223.667C1132.045,1217.286 1135.846,1211.132 1139.675,1205.221ZM1117.574,1242.461C1118.993,1239.873 1122.31,1238.891 1124.977,1240.268C1127.643,1241.646 1128.655,1244.866 1127.235,1247.453C1123.888,1253.555 1120.559,1259.83 1117.246,1266.265C1115.896,1268.888 1112.606,1269.953 1109.904,1268.643C1107.202,1267.332 1106.104,1264.14 1107.454,1261.517C1110.81,1254.998 1114.183,1248.642 1117.574,1242.461ZM1097.81,1280.776C1099.102,1278.126 1102.368,1276.993 1105.098,1278.248C1107.828,1279.502 1108.995,1282.672 1107.703,1285.321C1104.634,1291.612 1101.578,1298.032 1098.532,1304.571C1097.288,1307.242 1094.043,1308.431 1091.291,1307.223C1088.538,1306.016 1087.314,1302.866 1088.558,1300.195C1091.631,1293.599 1094.714,1287.122 1097.81,1280.776ZM1079.636,1319.741C1080.84,1317.052 1084.066,1315.818 1086.837,1316.986C1089.607,1318.155 1090.878,1321.286 1089.674,1323.975C1086.802,1330.39 1083.937,1336.903 1081.079,1343.504C1079.909,1346.207 1076.698,1347.479 1073.913,1346.343C1071.128,1345.208 1069.818,1342.092 1070.988,1339.389C1073.864,1332.747 1076.746,1326.195 1079.636,1319.741ZM1062.57,1359.119C1063.712,1356.405 1066.909,1355.102 1069.705,1356.21C1072.502,1357.318 1073.845,1360.421 1072.703,1363.135C1069.969,1369.635 1067.238,1376.209 1064.511,1382.849C1063.393,1385.572 1060.207,1386.902 1057.401,1385.817C1054.595,1384.731 1053.225,1381.639 1054.343,1378.916C1057.082,1372.248 1059.824,1365.646 1062.57,1359.119ZM1046.276,1398.765C1047.375,1396.034 1050.551,1394.683 1053.365,1395.75C1056.178,1396.817 1057.57,1399.9 1056.471,1402.63C1053.831,1409.189 1051.193,1415.804 1048.555,1422.466C1047.472,1425.203 1044.303,1426.571 1041.483,1425.519C1038.664,1424.468 1037.254,1421.392 1038.338,1418.656C1040.983,1411.975 1043.629,1405.342 1046.276,1398.765ZM1030.503,1438.579C1031.574,1435.838 1034.737,1434.456 1037.561,1435.496C1040.386,1436.535 1041.809,1439.605 1040.738,1442.346C1038.158,1448.946 1035.578,1455.586 1032.996,1462.259C1031.934,1465.004 1028.776,1466.395 1025.948,1465.364C1023.121,1464.334 1021.687,1461.269 1022.749,1458.524C1025.335,1451.841 1027.92,1445.19 1030.503,1438.579ZM1015.054,1478.485C1016.109,1475.738 1019.264,1474.34 1022.094,1475.365C1024.924,1476.389 1026.365,1479.451 1025.309,1482.198C1022.762,1488.826 1020.212,1495.481 1017.657,1502.154C1016.605,1504.902 1013.453,1506.304 1010.621,1505.284C1007.79,1504.263 1006.345,1501.203 1007.397,1498.455C1009.953,1491.777 1012.505,1485.118 1015.054,1478.485ZM999.758,1518.429C1000.808,1515.681 1003.961,1514.277 1006.792,1515.297C1009.624,1516.317 1011.071,1519.376 1010.02,1522.124C1007.479,1528.771 1004.933,1535.43 1002.381,1542.096C1001.329,1544.844 998.176,1546.246 995.345,1545.225C992.513,1544.204 991.068,1541.144 992.121,1538.396C994.672,1531.732 997.217,1525.074 999.758,1518.429ZM984.466,1558.353C985.522,1555.606 988.677,1554.208 991.507,1555.233C994.337,1556.257 995.777,1559.319 994.722,1562.066C992.163,1568.721 989.598,1575.377 987.024,1582.027C985.962,1584.772 982.804,1586.163 979.976,1585.132C977.149,1584.101 975.715,1581.036 976.777,1578.292C979.348,1571.649 981.911,1565.001 984.466,1558.353ZM969.036,1598.206C970.107,1595.465 973.269,1594.083 976.094,1595.122C978.918,1596.161 980.342,1599.231 979.271,1601.972C976.672,1608.626 974.063,1615.269 971.444,1621.895C970.362,1624.632 967.194,1626.001 964.373,1624.951C961.553,1623.901 960.142,1620.826 961.224,1618.089C963.838,1611.477 966.442,1604.847 969.036,1598.206ZM953.324,1637.933C954.419,1635.201 957.594,1633.847 960.409,1634.91C963.224,1635.974 964.619,1639.055 963.524,1641.787C960.858,1648.432 958.18,1655.053 955.49,1661.644C954.378,1664.369 951.194,1665.705 948.386,1664.625C945.578,1663.546 944.201,1660.456 945.314,1657.731C947.996,1651.16 950.666,1644.559 953.324,1637.933ZM937.174,1677.474C938.306,1674.756 941.499,1673.442 944.299,1674.541C947.1,1675.64 948.454,1678.738 947.322,1681.456C944.562,1688.082 941.788,1694.669 938.998,1701.212C937.843,1703.921 934.639,1705.21 931.848,1704.089C929.057,1702.968 927.729,1699.859 928.884,1697.15C931.662,1690.634 934.425,1684.073 937.174,1677.474ZM920.419,1716.749C921.6,1714.051 924.816,1712.791 927.596,1713.937C930.376,1715.084 931.674,1718.205 930.493,1720.903C927.606,1727.497 924.702,1734.037 921.779,1740.516C920.568,1743.202 917.338,1744.427 914.571,1743.252C911.804,1742.076 910.541,1738.941 911.752,1736.256C914.659,1729.812 917.547,1723.307 920.419,1716.749ZM902.856,1755.655C904.102,1752.984 907.348,1751.798 910.099,1753.007C912.851,1754.216 914.074,1757.366 912.828,1760.036C909.775,1766.582 906.701,1773.055 903.604,1779.448C902.319,1782.101 899.057,1783.243 896.323,1781.996C893.589,1780.749 892.413,1777.582 893.698,1774.929C896.773,1768.581 899.825,1762.154 902.856,1755.655ZM884.241,1794.056C885.571,1791.424 888.852,1790.334 891.565,1791.625C894.277,1792.915 895.399,1796.1 894.07,1798.732C890.8,1805.206 887.504,1811.585 884.181,1817.861C882.8,1820.468 879.498,1821.497 876.812,1820.157C874.125,1818.818 873.065,1815.613 874.445,1813.005C877.737,1806.788 881.002,1800.469 884.241,1794.056ZM864.263,1831.745C865.701,1829.167 869.026,1828.208 871.682,1829.604C874.338,1831.001 875.326,1834.227 873.887,1836.805C870.333,1843.172 866.747,1849.415 863.128,1855.524C861.623,1858.066 858.274,1858.943 855.656,1857.482C853.037,1856.021 852.133,1852.771 853.639,1850.23C857.213,1844.197 860.753,1838.032 864.263,1831.745ZM842.51,1868.406C844.092,1865.909 847.466,1865.128 850.039,1866.663C852.612,1868.199 853.416,1871.473 851.834,1873.97C847.904,1880.174 843.933,1886.214 839.921,1892.079C838.25,1894.521 834.851,1895.188 832.334,1893.566C829.818,1891.944 829.131,1888.645 830.802,1886.203C834.745,1880.439 838.647,1874.502 842.51,1868.406ZM818.428,1903.528C820.201,1901.155 823.626,1900.625 826.071,1902.346C828.516,1904.067 829.062,1907.391 827.288,1909.764C822.85,1915.704 818.361,1921.424 813.817,1926.911C811.925,1929.196 808.477,1929.56 806.122,1927.723C803.768,1925.886 803.393,1922.54 805.285,1920.255C809.718,1914.903 814.098,1909.322 818.428,1903.528ZM791.26,1936.217C793.291,1934.047 796.755,1933.885 798.991,1935.855C801.228,1937.826 801.395,1941.188 799.364,1943.358C794.234,1948.842 789.035,1954.025 783.765,1958.886C781.575,1960.906 778.108,1960.821 776.027,1958.696C773.946,1956.571 774.035,1953.206 776.224,1951.186C781.305,1946.5 786.315,1941.503 791.26,1936.217ZM760.049,1964.851C762.418,1963.032 765.863,1963.422 767.737,1965.721C769.61,1968.021 769.208,1971.364 766.839,1973.183C760.796,1977.822 754.659,1982.04 748.425,1985.812C745.862,1987.362 742.483,1986.602 740.885,1984.114C739.288,1981.626 740.071,1978.347 742.635,1976.797C748.531,1973.229 754.333,1969.238 760.049,1964.851ZM723.994,1986.487C726.759,1985.307 729.991,1986.528 731.206,1989.212C732.422,1991.895 731.164,1995.032 728.399,1996.212C720.273,1999.679 712.409,2001.237 704.81,2001.105C701.79,2001.052 699.382,1998.63 699.436,1995.699C699.49,1992.768 701.986,1990.431 705.006,1990.483C711.127,1990.59 717.448,1989.28 723.994,1986.487ZM686.433,1985.661C689.108,1987.023 690.142,1990.236 688.739,1992.832C687.337,1995.428 684.026,1996.431 681.351,1995.07C674.892,1991.784 668.63,1987.18 662.582,1981.35C660.439,1979.284 660.427,1975.918 662.556,1973.838C664.685,1971.758 668.153,1971.747 670.296,1973.813C675.504,1978.833 680.871,1982.832 686.433,1985.661ZM656.851,1958.174C658.6,1960.564 658.021,1963.883 655.558,1965.581C653.096,1967.278 649.676,1966.716 647.927,1964.326C643.833,1958.731 639.84,1952.546 635.948,1945.821C634.469,1943.265 635.406,1940.024 638.04,1938.589C640.674,1937.153 644.013,1938.063 645.492,1940.619C649.183,1946.998 652.967,1952.867 656.851,1958.174ZM635.658,1922.007C636.945,1924.659 635.771,1927.826 633.039,1929.076C630.306,1930.325 627.043,1929.186 625.756,1926.534C622.716,1920.273 619.742,1913.677 616.83,1906.777C615.686,1904.064 617.026,1900.96 619.821,1899.849C622.616,1898.738 625.815,1900.039 626.96,1902.752C629.797,1909.476 632.695,1915.904 635.658,1922.007ZM619.137,1883.074C620.171,1885.828 618.707,1888.879 615.869,1889.883C613.031,1890.887 609.887,1889.466 608.853,1886.711C606.393,1880.16 603.98,1873.393 601.613,1866.43C600.667,1863.646 602.227,1860.64 605.096,1859.722C607.964,1858.804 611.062,1860.318 612.008,1863.102C614.339,1869.959 616.714,1876.623 619.137,1883.074ZM605.443,1842.916C606.317,1845.722 604.68,1848.689 601.788,1849.538C598.897,1850.387 595.84,1848.797 594.966,1845.991C592.875,1839.282 590.822,1832.424 588.805,1825.432C587.99,1822.609 589.691,1819.676 592.599,1818.885C595.508,1818.095 598.531,1819.745 599.345,1822.568C601.341,1829.488 603.374,1836.276 605.443,1842.916ZM593.642,1802.094C594.406,1804.93 592.653,1807.835 589.73,1808.576C586.808,1809.317 583.815,1807.616 583.052,1804.78C581.219,1797.971 579.417,1791.058 577.645,1784.053C576.925,1781.206 578.723,1778.327 581.656,1777.629C584.59,1776.93 587.556,1778.674 588.276,1781.521C590.034,1788.474 591.823,1795.336 593.642,1802.094ZM583.201,1760.868C583.883,1763.724 582.048,1766.58 579.106,1767.242C576.163,1767.905 573.22,1766.124 572.538,1763.268C570.895,1756.391 569.279,1749.442 567.689,1742.432C567.04,1739.569 568.908,1736.733 571.858,1736.103C574.808,1735.472 577.73,1737.285 578.379,1740.148C579.96,1747.12 581.567,1754.03 583.201,1760.868ZM573.78,1719.374C574.4,1722.243 572.504,1725.062 569.548,1725.664C566.592,1726.266 563.688,1724.425 563.067,1721.556C561.57,1714.63 560.096,1707.656 558.645,1700.646C558.051,1697.771 559.972,1694.969 562.933,1694.392C565.895,1693.815 568.782,1695.68 569.377,1698.554C570.821,1705.534 572.289,1712.478 573.78,1719.374ZM565.147,1677.692C565.719,1680.57 563.775,1683.358 560.81,1683.913C557.844,1684.469 554.971,1682.583 554.399,1679.704C553.014,1672.738 551.651,1665.746 550.309,1658.74C549.757,1655.857 551.72,1653.082 554.69,1652.547C557.659,1652.011 560.518,1653.916 561.071,1656.798C562.408,1663.781 563.767,1670.749 565.147,1677.692ZM557.131,1635.875C557.665,1638.76 555.685,1641.524 552.712,1642.042C549.739,1642.561 546.892,1640.64 546.357,1637.754C545.061,1630.755 543.785,1623.751 542.528,1616.751C542.009,1613.863 544.004,1611.11 546.98,1610.607C549.955,1610.103 552.792,1612.039 553.311,1614.927C554.565,1621.908 555.838,1628.894 557.131,1635.875ZM549.597,1593.957C550.102,1596.848 548.094,1599.592 545.116,1600.082C542.138,1600.572 539.31,1598.624 538.805,1595.733C537.577,1588.705 536.368,1581.692 535.177,1574.704C534.684,1571.812 536.703,1569.075 539.683,1568.597C542.663,1568.118 545.483,1570.078 545.976,1572.97C547.165,1579.944 548.372,1586.943 549.597,1593.957ZM542.434,1551.968C542.917,1554.861 540.888,1557.591 537.906,1558.06C534.925,1558.529 532.112,1556.56 531.629,1553.666C530.451,1546.61 529.291,1539.591 528.148,1532.62C527.673,1529.725 529.71,1527 532.693,1526.539C535.676,1526.079 538.483,1528.055 538.958,1530.95C540.099,1537.912 541.258,1544.921 542.434,1551.968ZM535.535,1509.921C536.003,1512.817 533.961,1515.537 530.977,1515.992C527.993,1516.446 525.19,1514.464 524.722,1511.567C523.576,1504.483 522.448,1497.461 521.337,1490.513C520.873,1487.616 522.92,1484.899 525.905,1484.449C528.889,1483.999 531.689,1485.986 532.153,1488.883C533.264,1495.825 534.391,1502.842 535.535,1509.921ZM528.795,1467.836C529.256,1470.734 527.207,1473.449 524.222,1473.896C521.237,1474.344 518.439,1472.355 517.978,1469.458L514.63,1448.406C514.169,1445.509 516.218,1442.793 519.203,1442.346C522.188,1441.898 524.986,1443.887 525.447,1446.785L528.795,1467.836ZM522.089,1425.73C522.553,1428.626 520.506,1431.344 517.521,1431.794C514.536,1432.244 511.737,1430.257 511.273,1427.36C510.127,1420.201 508.998,1413.184 507.885,1406.326C507.414,1403.43 509.455,1400.709 512.439,1400.252C515.423,1399.796 518.227,1401.777 518.697,1404.673C519.811,1411.538 520.942,1418.563 522.089,1425.73ZM515.241,1383.617C515.722,1386.511 513.692,1389.24 510.71,1389.707C507.728,1390.174 504.916,1388.204 504.435,1385.309C503.234,1378.087 502.052,1371.083 500.885,1364.321C500.386,1361.429 502.399,1358.689 505.379,1358.205C508.358,1357.721 511.181,1359.675 511.68,1362.566C512.851,1369.349 514.037,1376.374 515.241,1383.617ZM507.953,1341.524C508.48,1344.411 506.493,1347.17 503.518,1347.681C500.544,1348.192 497.702,1346.264 497.175,1343.377C495.835,1336.035 494.515,1329.066 493.211,1322.509C492.639,1319.631 494.583,1316.843 497.548,1316.287C500.514,1315.732 503.387,1317.618 503.959,1320.497C505.272,1327.104 506.603,1334.126 507.953,1341.524ZM499.511,1299.492C500.164,1302.354 498.299,1305.192 495.349,1305.825C492.4,1306.458 489.476,1304.648 488.824,1301.785C487.068,1294.079 485.34,1287.255 483.628,1281.419C482.801,1278.599 484.489,1275.659 487.394,1274.856C490.299,1274.054 493.329,1275.692 494.156,1278.511C495.919,1284.524 497.702,1291.553 499.511,1299.492ZM450.631,1282.544C451.577,1279.76 454.675,1278.246 457.543,1279.165C460.411,1280.083 461.972,1283.089 461.025,1285.873C459.029,1291.744 457.106,1298.467 455.248,1305.962C454.542,1308.812 451.584,1310.569 448.647,1309.884C445.71,1309.198 443.9,1306.327 444.606,1303.477C446.542,1295.666 448.55,1288.662 450.631,1282.544ZM439.933,1324.526C440.509,1321.649 443.385,1319.767 446.35,1320.326C449.315,1320.886 451.254,1323.677 450.677,1326.554C449.363,1333.111 448.084,1340.062 446.838,1347.374C446.345,1350.266 443.525,1352.226 440.545,1351.748C437.565,1351.269 435.546,1348.533 436.039,1345.64C437.303,1338.225 438.6,1331.176 439.933,1324.526ZM432.666,1366.795C433.1,1363.894 435.879,1361.881 438.868,1362.302C441.857,1362.723 443.932,1365.42 443.498,1368.321C442.485,1375.096 441.494,1382.111 440.525,1389.346C440.135,1392.253 437.387,1394.307 434.392,1393.929C431.396,1393.55 429.281,1390.883 429.67,1387.976C430.647,1380.687 431.645,1373.62 432.666,1366.795ZM426.962,1409.177C427.317,1406.266 430.041,1404.182 433.04,1404.527C436.04,1404.871 438.187,1407.514 437.832,1410.425C436.994,1417.305 436.171,1424.349 435.364,1431.542C435.037,1434.456 432.334,1436.565 429.331,1436.247C426.328,1435.93 424.156,1433.306 424.483,1430.392C425.294,1423.165 426.12,1416.089 426.962,1409.177ZM422.188,1451.615C422.492,1448.699 425.179,1446.57 428.184,1446.866C431.189,1447.161 433.382,1449.768 433.078,1452.685C432.354,1459.627 431.643,1466.686 430.943,1473.85C430.658,1476.769 427.985,1478.914 424.978,1478.637C421.971,1478.361 419.761,1475.767 420.046,1472.848C420.748,1465.661 421.462,1458.579 422.188,1451.615ZM418.033,1494.089C418.302,1491.17 420.963,1489.011 423.971,1489.272C426.98,1489.533 429.204,1492.115 428.935,1495.035C428.292,1502.019 427.659,1509.088 427.036,1516.232C426.781,1519.153 424.13,1521.323 421.12,1521.076C418.11,1520.828 415.874,1518.256 416.129,1515.335C416.754,1508.175 417.389,1501.089 418.033,1494.089ZM414.318,1536.584C414.561,1533.662 417.203,1531.481 420.214,1531.717C423.225,1531.953 425.472,1534.517 425.228,1537.439C424.644,1544.454 424.069,1551.529 423.5,1558.656C423.267,1561.579 420.633,1563.768 417.622,1563.542C414.61,1563.316 412.354,1560.76 412.587,1557.837C413.156,1550.698 413.733,1543.611 414.318,1536.584ZM410.925,1579.093C411.15,1576.169 413.777,1573.973 416.79,1574.19C419.802,1574.408 422.065,1576.958 421.841,1579.882C421.301,1586.92 420.768,1594 420.24,1601.113C420.024,1604.037 417.402,1606.24 414.389,1606.029C411.376,1605.819 409.106,1603.274 409.323,1600.35C409.851,1593.229 410.385,1586.14 410.925,1579.093ZM407.771,1621.608C407.982,1618.684 410.599,1616.475 413.612,1616.679C416.625,1616.883 418.901,1619.423 418.69,1622.348C418.183,1629.407 417.681,1636.49 417.183,1643.589C416.978,1646.514 414.365,1648.727 411.352,1648.528C408.338,1648.329 406.058,1645.793 406.263,1642.869C406.76,1635.763 407.263,1628.674 407.771,1621.608ZM404.79,1664.13C404.991,1661.205 407.6,1658.988 410.614,1659.182C413.628,1659.376 415.913,1661.909 415.712,1664.834C415.227,1671.912 414.747,1678.997 414.271,1686.083C414.074,1689.008 411.467,1691.228 408.453,1691.038C405.439,1690.847 403.151,1688.317 403.348,1685.391C403.825,1678.301 404.305,1671.211 404.79,1664.13ZM401.93,1706.653C402.123,1703.728 404.728,1701.505 407.742,1701.694C410.757,1701.882 413.047,1704.41 412.853,1707.335C412.383,1714.43 411.916,1721.517 411.453,1728.59C411.261,1731.515 408.658,1733.739 405.643,1733.553C402.629,1733.367 400.337,1730.841 400.529,1727.915C400.993,1720.84 401.459,1713.751 401.93,1706.653ZM399.14,1749.176C399.331,1746.251 401.933,1744.025 404.948,1744.21C407.962,1744.395 410.255,1746.921 410.064,1749.846L408.682,1771.105C408.492,1774.03 405.89,1776.256 402.876,1776.071C399.861,1775.887 397.568,1773.362 397.758,1770.436L399.14,1749.176ZM396.376,1791.694C396.567,1788.769 399.169,1786.543 402.183,1786.728C405.198,1786.913 407.491,1789.439 407.3,1792.364C406.836,1799.495 406.373,1806.584 405.912,1813.625C405.72,1816.55 403.117,1818.775 400.102,1818.588C397.088,1818.402 394.796,1815.876 394.988,1812.95C395.449,1805.911 395.912,1798.823 396.376,1791.694ZM393.587,1834.203C393.781,1831.277 396.386,1829.055 399.4,1829.243C402.415,1829.432 404.704,1831.96 404.51,1834.885C404.036,1842.038 403.562,1849.128 403.088,1856.148C402.89,1859.073 400.283,1861.292 397.269,1861.101C394.255,1860.909 391.968,1858.378 392.166,1855.453C392.639,1848.438 393.113,1841.351 393.587,1834.203ZM390.715,1876.7C390.917,1873.775 393.528,1871.56 396.542,1871.756C399.556,1871.952 401.838,1874.486 401.636,1877.411C401.14,1884.59 400.643,1891.681 400.145,1898.674C399.937,1901.598 397.321,1903.809 394.308,1903.606C391.294,1903.404 389.017,1900.866 389.225,1897.941C389.723,1890.956 390.219,1883.872 390.715,1876.7ZM387.684,1919.175C387.901,1916.251 390.522,1914.048 393.535,1914.258C396.548,1914.468 398.818,1917.012 398.602,1919.936C398.068,1927.152 397.532,1934.244 396.993,1941.198C396.766,1944.122 394.137,1946.316 391.124,1946.096C388.112,1945.876 385.851,1943.324 386.078,1940.401C386.616,1933.458 387.151,1926.379 387.684,1919.175ZM384.386,1961.615C384.626,1958.693 387.266,1956.51 390.277,1956.743C393.288,1956.975 395.537,1959.537 395.298,1962.459C394.7,1969.731 394.099,1976.823 393.491,1983.719C393.234,1986.64 390.582,1988.808 387.572,1988.559C384.563,1988.309 382.328,1985.735 382.585,1982.814C383.191,1975.938 383.791,1968.866 384.386,1961.615ZM380.64,2003.991C380.92,2001.072 383.59,1998.923 386.597,1999.195C389.605,1999.468 391.819,2002.058 391.538,2004.977C390.83,2012.348 390.113,2019.442 389.386,2026.232C389.074,2029.148 386.381,2031.269 383.377,2030.966C380.372,2030.663 378.187,2028.05 378.499,2025.134C379.222,2018.379 379.935,2011.323 380.64,2003.991ZM376.082,2046.222C376.441,2043.311 379.167,2041.231 382.166,2041.579C385.165,2041.927 387.309,2044.573 386.95,2047.484C386.011,2055.096 385.053,2062.196 384.074,2068.736C383.639,2071.637 380.86,2073.65 377.871,2073.229C374.882,2072.807 372.807,2070.109 373.242,2067.208C374.209,2060.75 375.154,2053.739 376.082,2046.222ZM369.609,2087.735C370.305,2084.882 373.256,2083.115 376.195,2083.79C379.135,2084.465 380.956,2087.33 380.26,2090.182C378.527,2097.288 375.983,2104.308 372.82,2111.23C371.596,2113.91 368.36,2115.121 365.599,2113.933C362.837,2112.744 361.59,2109.603 362.814,2106.924C365.699,2100.612 368.028,2094.214 369.609,2087.735ZM352.93,2125.193C354.484,2122.679 357.848,2121.863 360.439,2123.371C363.029,2124.879 363.87,2128.145 362.316,2130.659C358.521,2136.796 354.369,2142.842 350.02,2148.788C348.271,2151.178 344.851,2151.741 342.389,2150.044C339.926,2148.347 339.346,2145.028 341.095,2142.638C345.281,2136.916 349.278,2131.099 352.93,2125.193ZM328.107,2159.531C329.957,2157.214 333.398,2156.79 335.786,2158.586C338.173,2160.381 338.61,2163.72 336.76,2166.038C332.205,2171.743 327.614,2177.339 323.151,2182.817C321.277,2185.116 317.832,2185.506 315.463,2183.688C313.094,2181.87 312.691,2178.526 314.565,2176.227C319.007,2170.776 323.575,2165.208 328.107,2159.531ZM301.035,2193.187C302.841,2190.838 306.273,2190.354 308.694,2192.107C311.115,2193.86 311.614,2197.191 309.808,2199.54C307.603,2202.409 305.49,2205.238 303.498,2208.026C301.777,2210.435 298.364,2211.035 295.882,2209.365C293.4,2207.695 292.781,2204.383 294.502,2201.974C296.564,2199.087 298.752,2196.157 301.035,2193.187Z" style="fill:rgb(120,156,240);"/>
        </g>
    </g>
    <g id="Graph">
        <!-- Plot origin is at (300,2200). Use integer coordinate steps (for example 100 units) from this point. -->
        <g id="Y-Axis" serif:id="Y Axis">
            <g id="Y-Axis-Line" serif:id="Y Axis Line">
                <path d="M300,2200L300,300" style="fill:none;stroke:rgb(10,29,87);stroke-width:10px;stroke-linejoin:round;stroke-miterlimit:1.5;"/>
            </g>
            <g id="Y-Axis-Arrow" serif:id="Y Axis Arrow">
                <path d="M300,200L260,300L340,300L300,200Z" style="fill:rgb(10,29,87);stroke:rgb(10,29,87);stroke-width:10px;stroke-linejoin:round;stroke-miterlimit:1.5;"/>
            </g>
            <g id="Y-Axis-Label" serif:id="Y Axis Label" transform="matrix(0,-1,1,0,-950,1550)">
                <text x="0px" y="0px" style="font-family:'Inter-Bold', 'Inter';font-weight:700;font-size:62.5px;fill:rgb(10,29,87);">PO<tspan x="87.127px " y="0px ">W</tspan>ER / CURRENT</text>
            </g>
        </g>
        <g id="X-Axis" serif:id="X Axis">
            <g id="X-Axis-Line" serif:id="X Axis Line">
                <path d="M300,2200L3200,2200" style="fill:none;stroke:rgb(10,29,87);stroke-width:10px;stroke-linejoin:round;stroke-miterlimit:1.5;"/>
            </g>
            <g id="X-Axis-Arrow" serif:id="X Axis Arrow">
                <path d="M3300,2200L3200,2160L3200,2240L3300,2200Z" style="fill:rgb(10,29,87);stroke:rgb(10,29,87);stroke-width:10px;stroke-linejoin:round;stroke-miterlimit:1.5;"/>
            </g>
            <g id="X-Axis-Label" serif:id="X Axis Label" transform="matrix(1,0,0,1,1750,2420)">
                <text x="0px" y="0px" style="font-family:'Inter-Bold', 'Inter';font-weight:700;font-size:62.5px;fill:rgb(10,29,87);">TIME</text>
            </g>
        </g>
    </g>
    <g id="Legend" transform="matrix(1.14199,0,0,1.176663,-5.246719,-703.985443)">
        <g id="Legend-Item-2" serif:id="Legend Item 2">
            <g id="Label" transform="matrix(1,0,0,1,105,396)">
                <g transform="matrix(62.5,0,0,62.5,1436.077686,2029.204072)">
                </g>
                <g transform="matrix(62.5,0,0,62.5,2024.883838,2029.204072)">
                </g>
                <g transform="matrix(62.5,0,0,62.5,2048.443409,2029.204072)">
                </g>
                <text x="1055.951px" y="2029.204px" style="font-family:'Inter-Bold', 'Inter';font-weight:700;font-size:62.5px;fill:rgb(10,29,87);">FULL S<tspan x="1264.325px 1300.488px 1341.595px " y="2029.204px 2029.204px 2029.204px ">TAT</tspan>E HIGH RESIS<tspan x="1810.223px 1846.387px " y="2029.204px 2029.204px ">TA</tspan>NCE</text>
            </g>
            <g id="Line-Sample" serif:id="Line Sample" transform="matrix(1,0,0,1,-203,998)">
                <path d="M1097.969,1407.312C1094.948,1407.295 1092.51,1404.901 1092.527,1401.97C1092.544,1399.038 1095.01,1396.672 1098.031,1396.688L1109.406,1396.751C1112.427,1396.768 1114.865,1399.161 1114.848,1402.093C1114.831,1405.024 1112.365,1407.391 1109.344,1407.374L1097.969,1407.312ZM1132.094,1407.499C1129.073,1407.482 1126.635,1405.089 1126.652,1402.157C1126.669,1399.226 1129.135,1396.859 1132.156,1396.876L1154.906,1397.001C1157.926,1397.018 1160.365,1399.411 1160.348,1402.343C1160.331,1405.274 1157.864,1407.641 1154.844,1407.624L1132.094,1407.499ZM1177.594,1407.749C1174.573,1407.732 1172.135,1405.339 1172.152,1402.407C1172.169,1399.476 1174.635,1397.109 1177.656,1397.126L1200.406,1397.251C1203.426,1397.268 1205.865,1399.661 1205.848,1402.593C1205.831,1405.524 1203.365,1407.891 1200.344,1407.874L1177.594,1407.749ZM1223.094,1407.999C1220.073,1407.982 1217.635,1405.589 1217.652,1402.657C1217.669,1399.726 1220.135,1397.359 1223.156,1397.376L1245.906,1397.501C1248.927,1397.518 1251.365,1399.911 1251.348,1402.843C1251.331,1405.774 1248.865,1408.141 1245.844,1408.124L1223.094,1407.999ZM1268.594,1408.249C1265.573,1408.232 1263.135,1405.839 1263.152,1402.907C1263.169,1399.976 1265.635,1397.609 1268.656,1397.626L1280.031,1397.688C1283.052,1397.705 1285.49,1400.099 1285.473,1403.03C1285.456,1405.962 1282.99,1408.328 1279.969,1408.312L1268.594,1408.249Z" style="fill:rgb(120,156,240);"/>
            </g>
        </g>
        <g id="Legend-Item-1" serif:id="Legend Item 1" transform="matrix(1,0,0,1,0,-102)">
            <g id="Label1" serif:id="Label" transform="matrix(1,0,0,1,105,396)">
                <g transform="matrix(62.5,0,0,62.5,1507.610889,2029.204072)">
                </g>
                <g transform="matrix(62.5,0,0,62.5,1835.613819,2029.204072)">
                </g>
                <g transform="matrix(62.5,0,0,62.5,1859.173389,2029.204072)">
                </g>
                <text x="1055.951px" y="2029.204px" style="font-family:'Inter-Bold', 'Inter';font-weight:700;font-size:62.5px;fill:rgb(10,29,87);">EMPT<tspan x="1234.906px " y="2029.204px ">Y</tspan> S<tspan x="1335.858px 1372.021px 1413.128px " y="2029.204px 2029.204px 2029.204px ">TAT</tspan>E BA<tspan x="1618.237px " y="2029.204px ">S</tspan>ELINE</text>
            </g>
            <g id="Line-Sample1" serif:id="Line Sample" transform="matrix(1,0,0,1,-203,998)">
                <path d="M1098,1402L1280,1403" style="fill:none;stroke:rgb(10,29,87);stroke-width:10px;stroke-linejoin:round;stroke-miterlimit:1.5;"/>
            </g>
        </g>
    </g>
</svg>
