<?xml version="1.0" encoding="UTF-8" standalone="no"?>
<!DOCTYPE svg PUBLIC "-//W3C//DTD SVG 1.1//EN" "http://www.w3.org/Graphics/SVG/1.1/DTD/svg11.dtd">
<svg width="100%" height="100%" viewBox="0 0 3508 2481" version="1.1" xmlns="http://www.w3.org/2000/svg" xmlns:xlink="http://www.w3.org/1999/xlink" xml:space="preserve" xmlns:serif="http://www.serif.com/" data-mode="overlay" style="fill-rule:evenodd;clip-rule:evenodd;stroke-linecap:round;stroke-linejoin:round;stroke-miterlimit:1.5;">
    <title>Empty vs Full State Overlay</title>
    <desc>
        Dual-state waveform comparison. Use the svg data-mode attribute (overlay | empty | full)
        and CSS custom properties to control colors, emphasis, and visible state.
    </desc>
    <style><![CDATA[
        svg {
            --ink: rgb(10, 29, 87);
            --accent: rgb(120, 156, 240);
            --full-wave-fill: var(--accent);
            --empty-wave-stroke: var(--ink);
            --full-opacity: 1;
            --empty-opacity: 1;
            --full-legend-opacity: 1;
            --empty-legend-opacity: 1;
            --focus-opacity: 1;
        }

        #Full-Wave {
            fill: var(--full-wave-fill) !important;
            opacity: var(--full-opacity);
        }

        #Empty-Wave {
            stroke: var(--empty-wave-stroke) !important;
            opacity: var(--empty-opacity);
        }

        #Full-State-Legend {
            opacity: var(--full-legend-opacity);
        }

        #Empty-State-Legend {
            opacity: var(--empty-legend-opacity);
        }

        #Focus {
            opacity: var(--focus-opacity);
        }

        svg[data-mode="overlay"] {
            --full-opacity: 1;
            --empty-opacity: 1;
            --full-legend-opacity: 1;
            --empty-legend-opacity: 1;
            --focus-opacity: 1;
        }

        svg[data-mode="empty"] {
            --full-opacity: 0.18;
            --empty-opacity: 1;
            --full-legend-opacity: 0.35;
            --empty-legend-opacity: 1;
            --focus-opacity: 0;
        }

        svg[data-mode="full"] {
            --full-opacity: 1;
            --empty-opacity: 0.25;
            --full-legend-opacity: 1;
            --empty-legend-opacity: 0.35;
            --focus-opacity: 1;
        }
    ]]></style>
    <g id="Graph" transform="matrix(1,0,0,1,130,-469)">
        <g id="Labels">
            <g transform="matrix(1,0,0,1,1839,300)">
                <g transform="matrix(62.5,0,0,62.5,1211.407276,2029.204072)">
                </g>
                <text x="1055.951px" y="2029.204px" style="font-family:'Inter-Bold', 'Inter';font-weight:700;font-size:62.5px;fill:rgb(10,29,87);">TIME</text>
            </g>
            <g transform="matrix(0,-1,1,0,-1800.830732,2697.805927)">
                <g transform="matrix(62.5,0,0,62.5,1642.193409,2029.204072)">
                </g>
                <text x="1055.951px" y="2029.204px" style="font-family:'Inter-Bold', 'Inter';font-weight:700;font-size:62.5px;fill:rgb(10,29,87);">PO<tspan x="1143.078px " y="2029.204px ">W</tspan>ER / CURRENT</text>
            </g>
        </g>
        <g id="Graph-Wave" serif:id="Graph Wave">
            <path id="Full-Wave" serif:id="Full Wave" d="M2993.979,2217.181C2996.639,2219.377 2997.016,2223.319 2994.819,2225.979C2992.623,2228.639 2988.681,2229.016 2986.021,2226.819C2982.719,2224.093 2979.475,2221.267 2976.276,2218.368C2973.72,2216.052 2973.525,2212.096 2975.841,2209.54C2978.157,2206.984 2982.113,2206.789 2984.669,2209.105C2987.726,2211.875 2990.824,2214.575 2993.979,2217.181ZM2966.693,2191.846C2969.134,2194.283 2969.138,2198.243 2966.701,2200.685C2964.264,2203.126 2960.303,2203.129 2957.862,2200.692C2951.922,2194.763 2946.028,2188.755 2940.063,2182.869C2937.608,2180.446 2937.582,2176.485 2940.005,2174.03C2942.427,2171.575 2946.388,2171.548 2948.843,2173.971C2954.826,2179.875 2960.736,2185.899 2966.693,2191.846ZM2930.168,2156.462C2932.765,2158.732 2933.031,2162.683 2930.761,2165.281C2928.491,2167.878 2924.54,2168.144 2921.942,2165.874C2915.752,2160.465 2909.371,2155.377 2902.671,2150.823C2899.818,2148.884 2899.076,2144.993 2901.016,2142.14C2902.955,2139.288 2906.845,2138.546 2909.698,2140.485C2916.813,2145.321 2923.594,2150.718 2930.168,2156.462ZM2886.717,2127.63C2889.875,2129.018 2891.313,2132.708 2889.925,2135.866C2888.538,2139.024 2884.847,2140.462 2881.689,2139.074C2880.686,2138.633 2879.674,2138.206 2878.654,2137.793C2872.709,2135.386 2866.067,2133.615 2858.925,2132.247C2855.537,2131.598 2853.313,2128.321 2853.962,2124.933C2854.611,2121.545 2857.888,2119.322 2861.276,2119.97C2869.269,2121.501 2876.692,2123.513 2883.346,2126.207C2884.479,2126.666 2885.603,2127.14 2886.717,2127.63ZM2835.669,2116.565C2839.105,2116.876 2841.641,2119.918 2841.33,2123.353C2841.018,2126.789 2837.977,2129.325 2834.541,2129.014C2826.459,2128.281 2818.073,2127.75 2809.561,2127.224C2806.118,2127.012 2803.495,2124.044 2803.707,2120.601C2803.92,2117.158 2806.887,2114.536 2810.33,2114.748C2818.965,2115.281 2827.471,2115.822 2835.669,2116.565ZM2785.279,2113.06C2788.718,2113.337 2791.284,2116.353 2791.008,2119.791C2790.731,2123.23 2787.714,2125.796 2784.276,2125.52C2775.686,2124.828 2767.137,2123.96 2758.798,2122.735C2755.385,2122.234 2753.021,2119.056 2753.522,2115.644C2754.024,2112.231 2757.201,2109.867 2760.614,2110.368C2768.687,2111.553 2776.963,2112.39 2785.279,2113.06ZM2736.703,2105.445C2740.025,2106.375 2741.966,2109.828 2741.035,2113.149C2740.104,2116.471 2736.652,2118.412 2733.331,2117.481C2724.54,2115.018 2716.231,2111.859 2708.625,2107.777C2705.586,2106.146 2704.442,2102.354 2706.074,2099.315C2707.705,2096.275 2711.497,2095.132 2714.536,2096.763C2721.358,2100.424 2728.819,2103.236 2736.703,2105.445ZM2695.304,2082.775C2697.911,2085.034 2698.192,2088.985 2695.933,2091.591C2693.673,2094.197 2689.723,2094.479 2687.116,2092.219C2680.682,2086.641 2674.452,2080.731 2668.415,2074.506C2666.014,2072.03 2666.075,2068.07 2668.551,2065.668C2671.027,2063.267 2674.987,2063.328 2677.389,2065.804C2683.172,2071.767 2689.14,2077.431 2695.304,2082.775ZM2660.874,2047.383C2663.078,2050.036 2662.714,2053.979 2660.062,2056.184C2657.409,2058.389 2653.465,2058.025 2651.26,2055.372C2645.863,2048.878 2640.632,2042.116 2635.559,2035.103C2633.537,2032.308 2634.165,2028.398 2636.959,2026.376C2639.754,2024.354 2643.665,2024.982 2645.687,2027.776C2650.594,2034.56 2655.653,2041.101 2660.874,2047.383ZM2631.726,2007.211C2633.582,2010.119 2632.727,2013.987 2629.819,2015.842C2626.911,2017.697 2623.044,2016.843 2621.188,2013.935C2616.667,2006.847 2612.278,1999.55 2608.015,1992.056C2606.309,1989.058 2607.359,1985.239 2610.357,1983.533C2613.355,1981.827 2617.174,1982.877 2618.88,1985.875C2623.037,1993.183 2627.317,2000.3 2631.726,2007.211ZM2607.033,1963.916C2608.605,1966.986 2607.389,1970.755 2604.319,1972.328C2601.249,1973.9 2597.479,1972.684 2595.907,1969.614C2592.082,1962.146 2588.363,1954.514 2584.743,1946.73C2583.289,1943.602 2584.648,1939.882 2587.775,1938.428C2590.903,1936.973 2594.623,1938.332 2596.078,1941.46C2599.63,1949.098 2603.279,1956.588 2607.033,1963.916ZM2585.915,1918.6C2587.265,1921.775 2585.785,1925.448 2582.61,1926.798C2579.436,1928.149 2575.763,1926.668 2574.413,1923.494C2571.13,1915.777 2567.932,1907.934 2564.813,1899.974C2563.555,1896.762 2565.14,1893.133 2568.352,1891.874C2571.564,1890.616 2575.193,1892.202 2576.452,1895.413C2579.527,1903.261 2582.679,1910.993 2585.915,1918.6ZM2567.605,1871.957C2568.782,1875.199 2567.106,1878.787 2563.864,1879.965C2560.622,1881.143 2557.034,1879.467 2555.856,1876.225C2552.992,1868.342 2550.197,1860.362 2547.463,1852.293C2546.356,1849.026 2548.109,1845.475 2551.376,1844.368C2554.643,1843.261 2558.195,1845.015 2559.302,1848.282C2562.006,1856.264 2564.772,1864.159 2567.605,1871.957ZM2551.475,1824.426C2552.52,1827.713 2550.699,1831.231 2547.412,1832.276C2544.125,1833.321 2540.607,1831.5 2539.562,1828.213C2537.021,1820.217 2534.532,1812.147 2532.092,1804.012C2531.101,1800.708 2532.979,1797.221 2536.283,1796.23C2539.587,1795.239 2543.074,1797.117 2544.065,1800.421C2546.485,1808.49 2548.954,1816.495 2551.475,1824.426ZM2537.018,1776.294C2537.963,1779.612 2536.036,1783.072 2532.718,1784.017C2529.4,1784.961 2525.94,1783.034 2524.996,1779.716C2522.698,1771.641 2520.441,1763.513 2518.221,1755.34C2517.317,1752.011 2519.285,1748.574 2522.614,1747.67C2525.943,1746.766 2529.38,1748.735 2530.284,1752.063C2532.491,1760.188 2534.734,1768.267 2537.018,1776.294ZM2523.816,1727.747C2524.686,1731.085 2522.683,1734.501 2519.345,1735.371C2516.007,1736.241 2512.591,1734.238 2511.72,1730.9C2509.601,1722.769 2507.513,1714.604 2505.451,1706.412C2504.609,1703.066 2506.642,1699.667 2509.987,1698.825C2513.332,1697.983 2516.731,1700.016 2517.573,1703.361C2519.626,1711.519 2521.706,1719.65 2523.816,1727.747ZM2511.515,1678.919C2512.334,1682.27 2510.278,1685.655 2506.927,1686.474C2503.576,1687.293 2500.191,1685.237 2499.372,1681.886C2497.376,1673.717 2495.402,1665.531 2493.445,1657.334C2492.644,1653.978 2494.717,1650.604 2498.073,1649.803C2501.428,1649.002 2504.802,1651.076 2505.603,1654.431C2507.555,1662.606 2509.524,1670.772 2511.515,1678.919ZM2499.801,1629.907C2500.589,1633.265 2498.503,1636.631 2495.144,1637.42C2491.786,1638.208 2488.42,1636.121 2487.632,1632.763C2485.709,1624.569 2483.798,1616.373 2481.897,1608.183C2481.116,1604.823 2483.211,1601.462 2486.571,1600.681C2489.931,1599.901 2493.293,1601.996 2494.073,1605.356C2495.972,1613.536 2497.88,1621.723 2499.801,1629.907ZM2488.382,1580.785C2489.159,1584.146 2487.062,1587.505 2483.701,1588.282C2480.34,1589.059 2476.981,1586.962 2476.204,1583.601C2474.306,1575.393 2472.412,1567.2 2470.518,1559.029C2469.739,1555.668 2471.835,1552.308 2475.195,1551.529C2478.555,1550.75 2481.916,1552.845 2482.695,1556.206C2484.59,1564.379 2486.484,1572.575 2488.382,1580.785ZM2476.974,1531.626C2477.76,1534.985 2475.671,1538.35 2472.312,1539.136C2468.953,1539.922 2465.588,1537.833 2464.802,1534.474C2462.881,1526.263 2460.955,1518.084 2459.019,1509.944C2458.221,1506.588 2460.297,1503.216 2463.653,1502.418C2467.009,1501.62 2470.382,1503.696 2471.18,1507.052C2473.119,1515.206 2475.049,1523.401 2476.974,1531.626ZM2465.274,1482.494C2466.09,1485.845 2464.031,1489.229 2460.679,1490.045C2457.328,1490.861 2453.944,1488.802 2453.128,1485.451C2451.131,1477.249 2449.12,1469.098 2447.088,1461.006C2446.248,1457.66 2448.282,1454.262 2451.628,1453.422C2454.974,1452.582 2458.372,1454.616 2459.212,1457.962C2461.251,1466.083 2463.27,1474.263 2465.274,1482.494ZM2452.947,1433.467C2453.818,1436.805 2451.815,1440.221 2448.477,1441.092C2445.139,1441.962 2441.722,1439.959 2440.852,1436.621C2438.719,1428.445 2436.561,1420.34 2434.37,1412.317C2433.462,1408.99 2435.426,1405.551 2438.753,1404.642C2442.081,1403.734 2445.52,1405.698 2446.429,1409.025C2448.632,1417.093 2450.803,1425.244 2452.947,1433.467ZM2439.598,1384.653C2440.553,1387.968 2438.637,1391.434 2435.322,1392.389C2432.008,1393.344 2428.541,1391.428 2427.586,1388.113C2425.245,1379.984 2422.864,1371.954 2420.437,1364.033C2419.426,1360.735 2421.284,1357.237 2424.582,1356.226C2427.88,1355.216 2431.378,1357.073 2432.389,1360.371C2434.836,1368.358 2437.237,1376.456 2439.598,1384.653ZM2424.723,1336.205C2425.801,1339.482 2424.015,1343.018 2420.738,1344.095C2417.461,1345.172 2413.926,1343.386 2412.849,1340.109C2410.204,1332.065 2407.503,1324.153 2404.738,1316.386C2403.581,1313.136 2405.28,1309.558 2408.53,1308.401C2411.779,1307.245 2415.357,1308.944 2416.514,1312.193C2419.313,1320.055 2422.047,1328.063 2424.723,1336.205ZM2407.653,1288.38C2408.905,1291.594 2407.311,1295.22 2404.097,1296.472C2400.883,1297.723 2397.257,1296.13 2396.005,1292.915C2392.931,1285.02 2389.777,1277.302 2386.535,1269.776C2385.171,1266.607 2386.635,1262.928 2389.803,1261.563C2392.971,1260.198 2396.651,1261.663 2398.015,1264.831C2401.315,1272.49 2404.524,1280.345 2407.653,1288.38ZM2387.448,1241.634C2388.947,1244.74 2387.642,1248.48 2384.535,1249.979C2381.429,1251.478 2377.689,1250.173 2376.19,1247.067C2372.51,1239.441 2368.719,1232.055 2364.806,1224.927C2363.147,1221.903 2364.254,1218.1 2367.278,1216.44C2370.302,1214.781 2374.104,1215.888 2375.764,1218.912C2379.78,1226.227 2383.671,1233.807 2387.448,1241.634ZM2362.743,1196.844C2364.594,1199.755 2363.733,1203.621 2360.822,1205.471C2357.911,1207.322 2354.045,1206.461 2352.195,1203.55C2347.671,1196.434 2342.991,1189.646 2338.142,1183.21C2336.067,1180.454 2336.619,1176.532 2339.374,1174.457C2342.129,1172.381 2346.051,1172.933 2348.126,1175.688C2353.17,1182.383 2358.038,1189.443 2362.743,1196.844ZM2331.63,1155.818C2333.965,1158.357 2333.799,1162.314 2331.259,1164.649C2328.72,1166.983 2324.763,1166.817 2322.428,1164.278C2316.792,1158.148 2310.943,1152.461 2304.859,1147.249C2302.24,1145.005 2301.935,1141.056 2304.179,1138.437C2306.423,1135.817 2310.372,1135.512 2312.992,1137.756C2319.445,1143.284 2325.652,1149.315 2331.63,1155.818ZM2292.066,1122.186C2294.974,1124.041 2295.829,1127.908 2293.975,1130.817C2292.12,1133.725 2288.253,1134.58 2285.344,1132.726C2278.501,1128.361 2271.386,1124.549 2263.978,1121.326C2260.815,1119.95 2259.364,1116.265 2260.741,1113.102C2262.117,1109.939 2265.802,1108.488 2268.965,1109.864C2276.974,1113.349 2284.667,1117.468 2292.066,1122.186ZM2244.153,1101.4C2247.498,1102.245 2249.528,1105.646 2248.683,1108.99C2247.839,1112.335 2244.438,1114.364 2241.093,1113.52C2233.422,1111.583 2225.465,1110.219 2217.206,1109.457C2213.772,1109.14 2211.24,1106.094 2211.557,1102.66C2211.874,1099.225 2214.92,1096.693 2218.355,1097.01C2227.275,1097.833 2235.868,1099.308 2244.153,1101.4ZM2193.101,1095.073C2196.54,1095.333 2199.122,1098.336 2198.862,1101.776C2198.602,1105.216 2195.598,1107.797 2192.158,1107.537C2183.796,1106.905 2175.411,1106.273 2167.007,1105.643C2163.568,1105.385 2160.984,1102.382 2161.243,1098.943C2161.501,1095.503 2164.503,1092.92 2167.943,1093.178C2176.349,1093.808 2184.736,1094.44 2193.101,1095.073ZM2142.783,1091.3C2146.223,1091.555 2148.809,1094.555 2148.554,1097.995C2148.298,1101.435 2145.298,1104.021 2141.858,1103.766C2133.489,1103.144 2125.104,1102.526 2116.707,1101.911C2113.266,1101.659 2110.678,1098.662 2110.93,1095.222C2111.182,1091.781 2114.179,1089.193 2117.619,1089.445C2126.021,1090.06 2134.41,1090.678 2142.783,1091.3ZM2092.455,1087.617C2095.895,1087.865 2098.488,1090.859 2098.24,1094.3C2097.992,1097.74 2094.998,1100.333 2091.557,1100.085C2083.181,1099.482 2074.796,1098.884 2066.405,1098.292C2062.964,1098.05 2060.367,1095.059 2060.61,1091.618C2060.853,1088.177 2063.843,1085.58 2067.284,1085.823C2075.681,1086.416 2084.073,1087.014 2092.455,1087.617ZM2042.11,1084.068C2045.551,1084.305 2048.153,1087.291 2047.915,1090.733C2047.678,1094.174 2044.692,1096.775 2041.251,1096.538C2032.868,1095.961 2024.482,1095.391 2016.096,1094.829C2012.654,1094.598 2010.047,1091.617 2010.278,1088.175C2010.508,1084.733 2013.49,1082.126 2016.932,1082.357C2025.325,1082.919 2033.719,1083.49 2042.11,1084.068ZM1991.748,1080.695C1995.19,1080.919 1997.804,1083.895 1997.58,1087.337C1997.357,1090.779 1994.381,1093.392 1990.939,1093.169C1982.547,1092.624 1974.159,1092.089 1965.778,1091.565C1962.336,1091.349 1959.715,1088.379 1959.931,1084.937C1960.146,1081.494 1963.116,1078.874 1966.559,1079.089C1974.95,1079.614 1983.347,1080.15 1991.748,1080.695ZM1941.366,1077.545C1944.809,1077.751 1947.437,1080.714 1947.23,1084.158C1947.024,1087.601 1944.06,1090.229 1940.617,1090.022C1932.218,1089.518 1923.829,1089.026 1915.453,1088.547C1912.009,1088.35 1909.373,1085.395 1909.57,1081.951C1909.766,1078.507 1912.722,1075.871 1916.166,1076.068C1924.554,1076.547 1932.955,1077.04 1941.366,1077.545ZM1890.96,1074.665C1894.405,1074.851 1897.05,1077.799 1896.864,1081.244C1896.677,1084.688 1893.73,1087.333 1890.285,1087.147C1881.878,1086.692 1873.487,1086.252 1865.116,1085.828C1861.671,1085.653 1859.016,1082.714 1859.191,1079.269C1859.366,1075.824 1862.304,1073.169 1865.749,1073.344C1874.134,1073.769 1882.539,1074.21 1890.96,1074.665ZM1840.531,1072.11C1843.977,1072.273 1846.642,1075.202 1846.48,1078.647C1846.318,1082.093 1843.389,1084.759 1839.944,1084.597C1831.527,1084.201 1823.135,1083.822 1814.769,1083.462C1811.323,1083.314 1808.645,1080.395 1808.793,1076.949C1808.942,1073.503 1811.86,1070.825 1815.306,1070.974C1823.689,1071.334 1832.098,1071.714 1840.531,1072.11ZM1790.076,1069.941C1793.522,1070.075 1796.213,1072.982 1796.079,1076.428C1795.946,1079.875 1793.039,1082.565 1789.592,1082.432C1781.167,1082.106 1772.772,1081.8 1764.413,1081.515C1760.965,1081.398 1758.262,1078.504 1758.379,1075.057C1758.496,1071.609 1761.39,1068.905 1764.838,1069.023C1773.217,1069.308 1781.631,1069.614 1790.076,1069.941ZM1739.594,1068.228C1743.042,1068.327 1745.76,1071.208 1745.66,1074.656C1745.561,1078.104 1742.68,1080.822 1739.232,1080.722C1730.798,1080.479 1722.402,1080.258 1714.05,1080.063C1710.601,1079.983 1707.867,1077.118 1707.948,1073.669C1708.028,1070.221 1710.893,1067.486 1714.342,1067.567C1722.717,1067.762 1731.135,1067.983 1739.594,1068.228ZM1689.083,1067.052C1692.532,1067.112 1695.284,1069.96 1695.224,1073.409C1695.164,1076.858 1692.316,1079.61 1688.867,1079.55C1680.422,1079.404 1672.027,1079.286 1663.685,1079.196C1660.236,1079.159 1657.465,1076.329 1657.502,1072.879C1657.539,1069.43 1660.37,1066.66 1663.819,1066.697C1672.189,1066.787 1680.611,1066.906 1689.083,1067.052ZM1638.551,1066.515C1642.001,1066.528 1644.791,1069.338 1644.779,1072.787C1644.767,1076.237 1641.957,1079.027 1638.507,1079.015C1630.054,1078.985 1621.66,1078.988 1613.331,1079.024C1609.882,1079.039 1607.069,1076.251 1607.054,1072.801C1607.039,1069.352 1609.827,1066.539 1613.277,1066.524C1621.638,1066.488 1630.065,1066.485 1638.551,1066.515ZM1587.999,1066.741C1591.448,1066.697 1594.284,1069.46 1594.329,1072.91C1594.374,1076.359 1591.61,1079.196 1588.161,1079.24C1579.699,1079.35 1571.31,1079.498 1562.999,1079.685C1559.551,1079.763 1556.688,1077.026 1556.61,1073.578C1556.533,1070.129 1559.269,1067.266 1562.718,1067.188C1571.068,1067 1579.496,1066.852 1587.999,1066.741ZM1537.436,1067.889C1540.884,1067.775 1543.776,1070.481 1543.89,1073.929C1544.004,1077.377 1541.297,1080.268 1537.85,1080.382C1529.381,1080.663 1521.001,1080.987 1512.717,1081.359C1509.271,1081.513 1506.348,1078.841 1506.193,1075.395C1506.039,1071.949 1508.711,1069.026 1512.157,1068.871C1520.49,1068.498 1528.918,1068.171 1537.436,1067.889ZM1486.884,1070.167C1490.328,1069.968 1493.286,1072.601 1493.485,1076.045C1493.685,1079.489 1491.051,1082.447 1487.608,1082.646C1479.136,1083.138 1470.774,1083.682 1462.528,1084.282C1459.088,1084.533 1456.091,1081.943 1455.841,1078.503C1455.591,1075.062 1458.18,1072.066 1461.621,1071.815C1469.927,1071.211 1478.35,1070.662 1486.884,1070.167ZM1436.374,1073.861C1439.809,1073.553 1442.849,1076.092 1443.156,1079.528C1443.464,1082.964 1440.925,1086.003 1437.489,1086.311C1429.022,1087.07 1420.692,1087.894 1412.506,1088.785C1409.077,1089.159 1405.99,1086.678 1405.616,1083.249C1405.243,1079.819 1407.724,1076.732 1411.153,1076.359C1419.416,1075.459 1427.825,1074.627 1436.374,1073.861ZM1385.969,1079.376C1389.39,1078.927 1392.531,1081.339 1392.98,1084.759C1393.429,1088.179 1391.017,1091.321 1387.597,1091.77C1379.149,1092.879 1370.877,1094.069 1362.79,1095.343C1359.382,1095.88 1356.18,1093.55 1355.643,1090.143C1355.106,1086.735 1357.436,1083.533 1360.844,1082.996C1369.035,1081.705 1377.413,1080.499 1385.969,1079.376ZM1335.8,1087.324C1339.189,1086.683 1342.461,1088.915 1343.102,1092.304C1343.743,1095.693 1341.511,1098.965 1338.122,1099.606C1329.729,1101.193 1321.568,1102.884 1313.649,1104.685C1310.286,1105.449 1306.934,1103.339 1306.169,1099.976C1305.404,1096.612 1307.514,1093.26 1310.878,1092.496C1318.942,1090.662 1327.253,1088.939 1335.8,1087.324ZM1286.137,1098.691C1289.463,1097.775 1292.906,1099.731 1293.822,1103.057C1294.738,1106.383 1292.781,1109.826 1289.456,1110.742C1281.201,1113.015 1273.267,1115.43 1265.67,1117.994C1262.401,1119.097 1258.852,1117.339 1257.749,1114.071C1256.646,1110.802 1258.404,1107.253 1261.673,1106.15C1269.487,1103.513 1277.647,1101.028 1286.137,1098.691ZM1237.646,1115.209C1240.824,1113.869 1244.493,1115.362 1245.832,1118.541C1247.172,1121.72 1245.679,1125.388 1242.5,1126.727C1234.617,1130.05 1227.206,1133.577 1220.294,1137.323C1217.262,1138.967 1213.465,1137.839 1211.821,1134.806C1210.178,1131.773 1211.306,1127.977 1214.338,1126.333C1221.593,1122.402 1229.371,1118.696 1237.646,1115.209ZM1192.535,1141.212C1195.194,1139.014 1199.137,1139.389 1201.334,1142.047C1203.532,1144.706 1203.158,1148.649 1200.499,1150.847C1194.532,1155.779 1188.657,1161.407 1182.86,1167.669C1180.517,1170.201 1176.559,1170.354 1174.028,1168.01C1171.496,1165.667 1171.344,1161.71 1173.687,1159.178C1179.88,1152.488 1186.16,1146.481 1192.535,1141.212ZM1157.111,1178.942C1159.21,1176.205 1163.137,1175.686 1165.874,1177.785C1168.612,1179.884 1169.13,1183.811 1167.031,1186.548C1162.184,1192.869 1157.389,1199.614 1152.639,1206.749C1150.727,1209.62 1146.844,1210.399 1143.973,1208.488C1141.101,1206.576 1140.322,1202.693 1142.234,1199.821C1147.144,1192.447 1152.101,1185.476 1157.111,1178.942ZM1128.642,1221.438C1130.408,1218.475 1134.247,1217.503 1137.21,1219.27C1140.173,1221.036 1141.145,1224.875 1139.379,1227.838C1135.228,1234.802 1131.108,1242.047 1127.016,1249.55C1125.364,1252.578 1121.565,1253.696 1118.536,1252.044C1115.508,1250.393 1114.39,1246.593 1116.042,1243.565C1120.213,1235.918 1124.411,1228.535 1128.642,1221.438ZM1104.224,1266.059C1105.784,1262.983 1109.548,1261.752 1112.625,1263.312C1115.701,1264.873 1116.932,1268.637 1115.372,1271.713C1111.665,1279.023 1107.978,1286.529 1104.307,1294.215C1102.82,1297.328 1099.086,1298.648 1095.974,1297.162C1092.861,1295.675 1091.541,1291.941 1093.027,1288.829C1096.741,1281.051 1100.473,1273.455 1104.224,1266.059ZM1082.332,1311.808C1083.758,1308.667 1087.466,1307.275 1090.607,1308.702C1093.748,1310.129 1095.139,1313.837 1093.712,1316.977C1090.298,1324.494 1086.896,1332.152 1083.503,1339.938C1082.124,1343.101 1078.438,1344.549 1075.276,1343.171C1072.114,1341.793 1070.665,1338.107 1072.043,1334.945C1075.462,1327.099 1078.891,1319.381 1082.332,1311.808ZM1062.086,1358.204C1063.424,1355.025 1067.092,1353.531 1070.271,1354.869C1073.45,1356.208 1074.945,1359.876 1073.606,1363.055C1070.386,1370.703 1067.172,1378.454 1063.963,1386.296C1062.656,1389.488 1059.003,1391.019 1055.811,1389.713C1052.619,1388.406 1051.088,1384.753 1052.394,1381.561C1055.62,1373.68 1058.85,1365.89 1062.086,1358.204ZM1042.916,1404.992C1044.197,1401.789 1047.838,1400.229 1051.04,1401.511C1054.243,1402.792 1055.803,1406.433 1054.521,1409.635C1051.426,1417.371 1048.332,1425.18 1045.239,1433.049C1043.977,1436.26 1040.346,1437.842 1037.135,1436.579C1033.925,1435.317 1032.343,1431.686 1033.605,1428.476C1036.708,1420.583 1039.811,1412.751 1042.916,1404.992ZM1024.421,1452C1025.669,1448.784 1029.293,1447.186 1032.509,1448.434C1035.725,1449.682 1037.323,1453.305 1036.075,1456.521C1033.051,1464.315 1030.025,1472.157 1026.995,1480.036C1025.757,1483.255 1022.138,1484.864 1018.918,1483.626C1015.699,1482.388 1014.09,1478.768 1015.328,1475.549C1018.362,1467.658 1021.393,1459.805 1024.421,1452ZM1006.292,1499.111C1007.524,1495.889 1011.141,1494.275 1014.363,1495.508C1017.584,1496.741 1019.199,1500.357 1017.966,1503.579C1014.969,1511.409 1011.967,1519.266 1008.957,1527.138C1007.725,1530.36 1004.109,1531.976 1000.887,1530.744C997.665,1529.512 996.049,1525.896 997.281,1522.674C1000.291,1514.8 1003.294,1506.943 1006.292,1499.111ZM988.266,1546.228C989.501,1543.008 993.118,1541.395 996.339,1542.63C999.56,1543.865 1001.172,1547.482 999.938,1550.703C996.928,1558.553 993.91,1566.409 990.881,1574.26C989.639,1577.478 986.018,1579.083 982.8,1577.841C979.582,1576.599 977.977,1572.979 979.219,1569.76C982.245,1561.917 985.26,1554.07 988.266,1546.228ZM970.109,1593.261C971.361,1590.047 974.988,1588.454 978.202,1589.707C981.416,1590.959 983.008,1594.585 981.756,1597.799C978.695,1605.654 975.621,1613.494 972.534,1621.309C971.266,1624.517 967.633,1626.093 964.424,1624.826C961.216,1623.558 959.641,1619.924 960.908,1616.716C963.989,1608.919 967.055,1601.097 970.109,1593.261ZM951.586,1640.115C952.873,1636.915 956.516,1635.361 959.716,1636.647C962.917,1637.934 964.47,1641.577 963.184,1644.778C960.031,1652.621 956.861,1660.429 953.674,1668.191C952.364,1671.382 948.709,1672.909 945.518,1671.598C942.327,1670.288 940.801,1666.634 942.111,1663.443C945.287,1655.709 948.445,1647.929 951.586,1640.115ZM932.449,1686.683C933.788,1683.504 937.456,1682.01 940.635,1683.349C943.814,1684.688 945.308,1688.356 943.969,1691.535C940.678,1699.349 937.366,1707.105 934.031,1714.793C932.658,1717.957 928.975,1719.412 925.81,1718.039C922.645,1716.666 921.191,1712.982 922.564,1709.818C925.881,1702.171 929.175,1694.456 932.449,1686.683ZM912.414,1732.825C913.827,1729.678 917.529,1728.27 920.676,1729.683C923.823,1731.096 925.231,1734.798 923.818,1737.944C920.333,1745.707 916.822,1753.385 913.283,1760.966C911.824,1764.092 908.101,1765.445 904.976,1763.986C901.85,1762.526 900.497,1758.804 901.957,1755.679C905.47,1748.153 908.955,1740.531 912.414,1732.825ZM891.139,1778.346C892.652,1775.246 896.398,1773.958 899.497,1775.472C902.597,1776.985 903.885,1780.731 902.371,1783.831C898.622,1791.51 894.839,1799.071 891.021,1806.501C889.444,1809.569 885.673,1810.779 882.605,1809.203C879.537,1807.626 878.326,1803.855 879.903,1800.787C883.682,1793.433 887.427,1785.948 891.139,1778.346ZM868.182,1822.951C869.832,1819.922 873.631,1818.802 876.66,1820.453C879.69,1822.103 880.809,1825.902 879.158,1828.931C875.047,1836.477 870.894,1843.861 866.695,1851.067C864.959,1854.047 861.129,1855.058 858.149,1853.321C855.168,1851.585 854.158,1847.755 855.895,1844.774C860.034,1837.67 864.128,1830.39 868.182,1822.951ZM842.948,1866.172C844.785,1863.253 848.647,1862.375 851.567,1864.212C854.486,1866.05 855.364,1869.912 853.527,1872.831C848.915,1880.157 844.249,1887.26 839.524,1894.121C837.568,1896.961 833.673,1897.679 830.832,1895.723C827.991,1893.766 827.273,1889.872 829.23,1887.031C833.858,1880.31 838.43,1873.35 842.948,1866.172ZM814.606,1907.195C816.704,1904.456 820.63,1903.935 823.368,1906.033C826.107,1908.13 826.628,1912.056 824.531,1914.795C819.215,1921.737 813.824,1928.364 808.356,1934.651C806.092,1937.254 802.141,1937.529 799.539,1935.265C796.936,1933.002 796.661,1929.051 798.924,1926.448C804.226,1920.352 809.452,1913.926 814.606,1907.195ZM782.007,1944.487C784.466,1942.069 788.427,1942.102 790.845,1944.562C793.264,1947.021 793.23,1950.982 790.771,1953.4C784.458,1959.608 778.041,1965.358 771.516,1970.618C768.83,1972.783 764.892,1972.36 762.727,1969.674C760.562,1966.989 760.985,1963.051 763.671,1960.886C769.885,1955.877 775.995,1950.399 782.007,1944.487ZM743.767,1975.056C746.701,1973.241 750.556,1974.149 752.37,1977.083C754.185,1980.016 753.277,1983.871 750.344,1985.686C743.524,1989.905 736.587,1993.592 729.529,1996.715C728.68,1997.091 727.834,1997.446 726.992,1997.78C723.785,1999.053 720.149,1997.482 718.877,1994.276C717.605,1991.07 719.175,1987.434 722.381,1986.162C723.075,1985.886 723.772,1985.594 724.471,1985.285C731.015,1982.389 737.444,1978.967 743.767,1975.056ZM700.767,1989.238C704.189,1989.675 706.613,1992.807 706.176,1996.229C705.739,1999.651 702.607,2002.074 699.185,2001.637C690.188,2000.489 681.538,1996.975 673.25,1991.27C670.409,1989.314 669.69,1985.419 671.646,1982.578C673.602,1979.737 677.496,1979.018 680.338,1980.973C686.877,1985.475 693.669,1988.332 700.767,1989.238ZM663.202,1964.93C665.422,1967.57 665.08,1971.516 662.44,1973.735C659.799,1975.955 655.853,1975.614 653.634,1972.973C648.428,1966.781 643.378,1959.653 638.486,1951.681C636.682,1948.741 637.604,1944.889 640.544,1943.085C643.484,1941.281 647.336,1942.203 649.14,1945.143C653.684,1952.549 658.366,1959.177 663.202,1964.93ZM637.303,1923.53C638.829,1926.624 637.557,1930.374 634.464,1931.901C631.371,1933.428 627.62,1932.156 626.093,1929.062C622.48,1921.741 618.958,1913.949 615.523,1905.734C614.193,1902.551 615.697,1898.887 618.879,1897.557C622.062,1896.227 625.726,1897.73 627.056,1900.913C630.386,1908.877 633.8,1916.432 637.303,1923.53ZM617.988,1877.681C619.173,1880.921 617.504,1884.513 614.265,1885.698C611.025,1886.882 607.433,1885.214 606.248,1881.974C603.417,1874.232 600.65,1866.206 597.943,1857.927C596.871,1854.648 598.663,1851.116 601.942,1850.044C605.221,1848.973 608.753,1850.764 609.824,1854.043C612.485,1862.181 615.205,1870.071 617.988,1877.681ZM602.379,1830.122C603.36,1833.429 601.473,1836.911 598.166,1837.893C594.859,1838.874 591.377,1836.987 590.396,1833.68C588.034,1825.726 585.722,1817.586 583.456,1809.285C582.548,1805.957 584.513,1802.518 587.84,1801.61C591.168,1800.702 594.607,1802.666 595.515,1805.994C597.756,1814.204 600.043,1822.255 602.379,1830.122ZM589.134,1781.708C589.981,1785.052 587.954,1788.454 584.61,1789.301C581.266,1790.147 577.864,1788.12 577.017,1784.776C574.97,1776.694 572.964,1768.489 570.996,1760.181C570.201,1756.824 572.281,1753.454 575.637,1752.659C578.994,1751.863 582.364,1753.943 583.159,1757.3C585.112,1765.544 587.103,1773.687 589.134,1781.708ZM577.53,1732.794C578.28,1736.161 576.157,1739.504 572.79,1740.255C569.423,1741.006 566.08,1738.882 565.329,1735.515C563.508,1727.346 561.72,1719.1 559.966,1710.795C559.253,1707.42 561.415,1704.101 564.79,1703.388C568.165,1702.675 571.484,1704.837 572.196,1708.212C573.941,1716.471 575.718,1724.671 577.53,1732.794ZM567.12,1683.566C567.799,1686.947 565.606,1690.245 562.224,1690.925C558.842,1691.605 555.545,1689.411 554.865,1686.029C553.209,1677.796 551.585,1669.522 549.989,1661.226C549.338,1657.838 551.559,1654.559 554.947,1653.908C558.334,1653.257 561.613,1655.478 562.264,1658.865C563.853,1667.127 565.471,1675.366 567.12,1683.566ZM557.602,1634.123C558.229,1637.515 555.984,1640.778 552.592,1641.404C549.2,1642.031 545.937,1639.786 545.31,1636.394C543.779,1628.108 542.276,1619.816 540.8,1611.535C540.194,1608.139 542.46,1604.89 545.856,1604.285C549.252,1603.68 552.5,1605.945 553.106,1609.341C554.578,1617.597 556.076,1625.863 557.602,1634.123ZM548.752,1584.528C549.34,1587.928 547.057,1591.164 543.658,1591.751C540.259,1592.339 537.022,1590.056 536.435,1586.657C534.996,1578.325 533.582,1570.022 532.193,1561.763C531.621,1558.361 533.918,1555.135 537.32,1554.563C540.721,1553.99 543.948,1556.288 544.52,1559.689C545.906,1567.93 547.316,1576.216 548.752,1584.528ZM540.386,1534.827C540.946,1538.231 538.637,1541.449 535.233,1542.008C531.83,1542.568 528.612,1540.259 528.052,1536.856C526.674,1528.48 525.321,1520.169 523.991,1511.943C523.44,1508.537 525.758,1505.326 529.163,1504.775C532.569,1504.225 535.78,1506.542 536.331,1509.948C537.659,1518.163 539.01,1526.462 540.386,1534.827ZM532.331,1485.054C532.876,1488.46 530.552,1491.668 527.146,1492.212C523.74,1492.756 520.532,1490.433 519.988,1487.027C518.641,1478.601 517.319,1470.288 516.018,1462.111C515.477,1458.704 517.802,1455.498 521.209,1454.957C524.616,1454.415 527.821,1456.741 528.363,1460.147C529.663,1468.322 530.985,1476.631 532.331,1485.054ZM524.398,1435.232C524.941,1438.638 522.617,1441.845 519.21,1442.388C515.804,1442.932 512.597,1440.607 512.054,1437.201C510.7,1428.711 509.37,1420.404 508.062,1412.306C507.511,1408.901 509.829,1405.689 513.235,1405.139C516.64,1404.589 519.851,1406.907 520.402,1410.312C521.711,1418.418 523.043,1426.733 524.398,1435.232ZM516.328,1385.393C516.892,1388.796 514.588,1392.017 511.185,1392.581C507.782,1393.145 504.561,1390.841 503.996,1387.438C502.572,1378.846 501.173,1370.558 499.796,1362.611C499.207,1359.212 501.488,1355.974 504.887,1355.386C508.286,1354.797 511.523,1357.078 512.112,1360.477C513.494,1368.452 514.899,1376.771 516.328,1385.393ZM507.651,1335.57C508.282,1338.961 506.041,1342.227 502.65,1342.858C499.259,1343.49 495.993,1341.249 495.362,1337.858C493.721,1329.046 492.11,1320.818 490.522,1313.246C489.814,1309.87 491.98,1306.555 495.356,1305.846C498.732,1305.138 502.048,1307.304 502.756,1310.68C504.362,1318.337 505.992,1326.658 507.651,1335.57ZM496.991,1285.808C497.865,1289.145 495.865,1292.563 492.528,1293.437C489.191,1294.311 485.773,1292.311 484.899,1288.974C482.309,1279.085 479.808,1271.39 477.289,1266.295C475.761,1263.203 477.03,1259.451 480.123,1257.923C483.215,1256.394 486.967,1257.664 488.495,1260.756C491.28,1266.39 494.127,1274.872 496.991,1285.808ZM459.542,1261.027C461.437,1258.145 465.316,1257.343 468.198,1259.238C471.081,1261.132 471.883,1265.011 469.988,1267.893C466.692,1272.907 463.635,1280.197 460.689,1289.428C459.64,1292.714 456.121,1294.53 452.835,1293.481C449.549,1292.433 447.732,1288.913 448.781,1285.627C452.153,1275.061 455.77,1266.767 459.542,1261.027ZM442.129,1310.497C442.897,1307.135 446.251,1305.028 449.614,1305.797C452.977,1306.565 455.083,1309.919 454.315,1313.282C452.598,1320.792 450.94,1328.963 449.335,1337.731C448.714,1341.124 445.455,1343.374 442.061,1342.753C438.668,1342.131 436.418,1338.872 437.039,1335.479C438.68,1326.52 440.375,1318.171 442.129,1310.497ZM432.831,1360.524C433.359,1357.116 436.555,1354.777 439.964,1355.305C443.373,1355.833 445.711,1359.029 445.183,1362.438C443.953,1370.378 442.756,1378.671 441.589,1387.285C441.126,1390.703 437.975,1393.103 434.557,1392.64C431.139,1392.177 428.739,1389.026 429.202,1385.607C430.38,1376.912 431.589,1368.539 432.831,1360.524ZM425.99,1410.715C426.405,1407.291 429.522,1404.847 432.946,1405.262C436.371,1405.677 438.814,1408.793 438.4,1412.218C437.418,1420.331 436.458,1428.669 435.518,1437.209C435.141,1440.637 432.051,1443.115 428.623,1442.738C425.194,1442.361 422.716,1439.271 423.093,1435.842C424.038,1427.256 425.003,1418.873 425.99,1410.715ZM420.443,1460.983C420.79,1457.551 423.858,1455.047 427.29,1455.394C430.722,1455.741 433.227,1458.809 432.88,1462.241C432.049,1470.45 431.235,1478.81 430.436,1487.303C430.114,1490.738 427.063,1493.264 423.629,1492.941C420.195,1492.618 417.668,1489.568 417.991,1486.133C418.793,1477.61 419.61,1469.22 420.443,1460.983ZM415.702,1511.291C416.005,1507.854 419.041,1505.311 422.477,1505.614C425.913,1505.916 428.457,1508.952 428.154,1512.388C427.425,1520.657 426.709,1529.03 426.005,1537.491C425.719,1540.928 422.696,1543.487 419.258,1543.201C415.82,1542.915 413.262,1539.891 413.548,1536.454C414.254,1527.973 414.972,1519.58 415.702,1511.291ZM411.506,1561.623C411.778,1558.184 414.791,1555.613 418.23,1555.886C421.668,1556.158 424.239,1559.171 423.967,1562.609C423.309,1570.922 422.661,1579.303 422.023,1587.738C421.762,1591.177 418.758,1593.758 415.318,1593.498C411.879,1593.238 409.298,1590.234 409.558,1586.794C410.198,1578.345 410.847,1569.95 411.506,1561.623ZM407.689,1611.968C407.94,1608.527 410.936,1605.938 414.377,1606.188C417.817,1606.439 420.407,1609.436 420.156,1612.876C419.548,1621.224 418.947,1629.61 418.354,1638.022C418.112,1641.463 415.121,1644.06 411.68,1643.817C408.239,1643.574 405.643,1640.584 405.885,1637.143C406.479,1628.721 407.08,1620.325 407.689,1611.968ZM404.135,1662.318C404.371,1658.876 407.357,1656.274 410.798,1656.51C414.24,1656.746 416.842,1659.732 416.606,1663.173C416.031,1671.551 415.462,1679.942 414.899,1688.332C414.668,1691.773 411.686,1694.38 408.245,1694.149C404.803,1693.918 402.196,1690.936 402.427,1687.494C402.991,1679.098 403.56,1670.702 404.135,1662.318ZM400.752,1712.672C400.979,1709.23 403.958,1706.62 407.4,1706.847C410.842,1707.074 413.452,1710.053 413.225,1713.495C412.67,1721.902 412.12,1730.295 411.573,1738.662C411.348,1742.104 408.371,1744.716 404.929,1744.491C401.487,1744.267 398.875,1741.289 399.1,1737.847C399.646,1729.477 400.197,1721.081 400.752,1712.672ZM397.46,1763.021C397.684,1759.578 400.66,1756.965 404.103,1757.189C407.545,1757.413 410.158,1760.389 409.934,1763.831L408.298,1789.004C408.074,1792.446 405.098,1795.059 401.656,1794.835C398.213,1794.611 395.601,1791.634 395.825,1788.192L397.46,1763.021ZM394.182,1813.361C394.407,1809.919 397.385,1807.308 400.827,1807.534C404.269,1807.759 406.881,1810.737 406.655,1814.179C406.1,1822.648 405.546,1831.045 404.993,1839.356C404.764,1842.798 401.783,1845.406 398.341,1845.177C394.9,1844.948 392.291,1841.968 392.52,1838.526C393.073,1830.219 393.627,1821.826 394.182,1813.361ZM390.828,1863.684C391.062,1860.243 394.047,1857.639 397.488,1857.873C400.93,1858.108 403.533,1861.092 403.299,1864.533C402.72,1873.044 402.14,1881.442 401.559,1889.712C401.317,1893.153 398.327,1895.75 394.886,1895.509C391.445,1895.267 388.848,1892.277 389.09,1888.836C389.67,1880.575 390.249,1872.185 390.828,1863.684ZM387.287,1913.978C387.539,1910.538 390.537,1907.949 393.977,1908.201C397.417,1908.453 400.006,1911.451 399.754,1914.891C399.126,1923.459 398.495,1931.859 397.86,1940.07C397.594,1943.51 394.586,1946.086 391.147,1945.82C387.708,1945.554 385.132,1942.546 385.398,1939.107C386.031,1930.912 386.66,1922.529 387.287,1913.978ZM383.391,1964.217C383.676,1960.779 386.698,1958.219 390.135,1958.504C393.573,1958.788 396.133,1961.81 395.848,1965.248C395.131,1973.911 394.407,1982.313 393.675,1990.426C393.364,1993.861 390.323,1996.399 386.888,1996.088C383.452,1995.778 380.915,1992.737 381.225,1989.302C381.955,1981.219 382.677,1972.848 383.391,1964.217ZM378.838,2014.347C379.184,2010.915 382.252,2008.41 385.684,2008.757C389.116,2009.104 391.621,2012.172 391.274,2015.604C390.379,2024.463 389.469,2032.872 388.541,2040.781C388.139,2044.207 385.031,2046.662 381.605,2046.26C378.179,2045.858 375.724,2042.75 376.126,2039.324C377.047,2031.478 377.95,2023.136 378.838,2014.347ZM372.901,2064.17C373.396,2060.756 376.57,2058.387 379.984,2058.882C383.397,2059.378 385.767,2062.552 385.271,2065.965C384.254,2072.976 383.212,2079.385 382.145,2085.14C381.754,2087.248 381.29,2089.349 380.756,2091.442C379.905,2094.785 376.5,2096.807 373.157,2095.956C369.814,2095.104 367.792,2091.699 368.643,2088.356C369.108,2086.531 369.514,2084.699 369.855,2082.86C370.895,2077.251 371.909,2071.003 372.901,2064.17ZM360.144,2110.644C361.681,2107.556 365.436,2106.296 368.524,2107.833C371.612,2109.37 372.872,2113.125 371.335,2116.213C367.553,2123.814 363.069,2131.294 358.157,2138.634C356.238,2141.501 352.353,2142.271 349.487,2140.353C346.62,2138.434 345.85,2134.549 347.769,2131.682C352.379,2124.793 356.594,2117.777 360.144,2110.644ZM333.19,2151.724C335.304,2148.998 339.233,2148.502 341.959,2150.616C344.685,2152.73 345.181,2156.659 343.067,2159.385C337.833,2166.133 332.457,2172.739 327.196,2179.188C325.015,2181.861 321.075,2182.26 318.402,2180.08C315.729,2177.899 315.329,2173.959 317.51,2171.286C322.708,2164.915 328.02,2158.39 333.19,2151.724ZM301.614,2191.069C303.728,2188.343 307.658,2187.847 310.383,2189.961C313.109,2192.076 313.605,2196.005 311.49,2198.731C308.888,2202.085 306.405,2205.386 304.086,2208.633C302.081,2211.44 298.174,2212.091 295.367,2210.086C292.56,2208.081 291.909,2204.174 293.914,2201.367C296.326,2197.991 298.908,2194.557 301.614,2191.069Z" style="fill:rgb(120,156,240);"/>
            <path id="Empty-Wave" serif:id="Empty Wave" d="M302,2201C318.454,2180.175 377,2164 377,2164C451.917,2153.342 444.992,1550.948 485,1554C510.85,1555.972 544.193,1906.967 581,1975C616.916,2074.79 790.385,2077.626 934,2023C1099.956,1959.876 1159.692,1838.16 1521,1725C1733.583,1658.42 2102.275,1650.465 2190,1705C2287.16,1765.4 2288.258,1956.278 2437,2111C2499.816,2176.341 2572.929,2155.735 2720,2162C2804.475,2165.598 2847.705,2191.234 2876,2221" style="fill:none;stroke:rgb(10,29,87);stroke-width:12.5px;"/>
        </g>
        <g id="Legend">
            <g id="Empty-State-Legend" serif:id="Empty State Legend" transform="matrix(1,0,0,1,0,-102)">
                <g transform="matrix(1,0,0,1,-203,998)">
                    <path d="M1098,1402L1280,1403" style="fill:none;stroke:rgb(10,29,87);stroke-width:12.5px;"/>
                </g>
                <g transform="matrix(1,0,0,1,105,396)">
                    <g transform="matrix(62.5,0,0,62.5,1507.610889,2029.204072)">
                    </g>
                    <g transform="matrix(62.5,0,0,62.5,1835.613819,2029.204072)">
                    </g>
                    <g transform="matrix(62.5,0,0,62.5,1859.173389,2029.204072)">
                    </g>
                    <text x="1055.951px" y="2029.204px" style="font-family:'Inter-Bold', 'Inter';font-weight:700;font-size:62.5px;fill:rgb(10,29,87);">EMPT<tspan x="1234.906px " y="2029.204px ">Y</tspan> S<tspan x="1335.858px 1372.021px 1413.128px " y="2029.204px 2029.204px 2029.204px ">TAT</tspan>E BA<tspan x="1618.237px " y="2029.204px ">S</tspan>ELINE</text>
                </g>
            </g>
            <g id="Full-State-Legend" serif:id="Full State Legend">
                <g transform="matrix(1,0,0,1,105,396)">
                    <g transform="matrix(62.5,0,0,62.5,1436.077686,2029.204072)">
                    </g>
                    <g transform="matrix(62.5,0,0,62.5,2024.883838,2029.204072)">
                    </g>
                    <g transform="matrix(62.5,0,0,62.5,2048.443409,2029.204072)">
                    </g>
                    <text x="1055.951px" y="2029.204px" style="font-family:'Inter-Bold', 'Inter';font-weight:700;font-size:62.5px;fill:rgb(10,29,87);">FULL S<tspan x="1264.325px 1300.488px 1341.595px " y="2029.204px 2029.204px 2029.204px ">TAT</tspan>E HIGH RESIS<tspan x="1810.223px 1846.387px " y="2029.204px 2029.204px ">TA</tspan>NCE</text>
                </g>
                <g transform="matrix(1,0,0,1,-203,998)">
                    <path d="M1097.966,1408.25C1094.516,1408.231 1091.731,1405.415 1091.75,1401.966C1091.769,1398.516 1094.585,1395.731 1098.034,1395.75L1113.201,1395.833C1116.65,1395.852 1119.435,1398.668 1119.417,1402.118C1119.398,1405.567 1116.582,1408.352 1113.132,1408.333L1097.966,1408.25ZM1143.466,1408.5C1140.016,1408.481 1137.231,1405.665 1137.25,1402.216C1137.269,1398.766 1140.085,1395.981 1143.534,1396L1173.868,1396.167C1177.317,1396.186 1180.102,1399.002 1180.083,1402.451C1180.064,1405.9 1177.249,1408.686 1173.799,1408.667L1143.466,1408.5ZM1204.132,1408.833C1200.683,1408.814 1197.898,1405.998 1197.917,1402.549C1197.936,1399.1 1200.752,1396.314 1204.201,1396.333L1234.534,1396.5C1237.984,1396.519 1240.769,1399.335 1240.75,1402.784C1240.731,1406.234 1237.915,1409.019 1234.466,1409L1204.132,1408.833ZM1264.799,1409.167C1261.35,1409.148 1258.565,1406.332 1258.583,1402.882C1258.602,1399.433 1261.418,1396.648 1264.868,1396.667L1280.034,1396.75C1283.484,1396.769 1286.269,1399.585 1286.25,1403.034C1286.231,1406.484 1283.415,1409.269 1279.966,1409.25L1264.799,1409.167Z" style="fill:rgb(120,156,240);"/>
                </g>
            </g>
        </g>
        <g id="Frame">
            <g transform="matrix(1,0,0,1,-203,782)">
                <path d="M503,232L498,1434L3281,1442" style="fill:none;stroke:rgb(10,29,87);stroke-width:12.5px;"/>
            </g>
            <g transform="matrix(1,0,0,1,-202,633)">
                <path d="M502,332L479,391C493.418,385.144 508.99,384.701 526,391L502,332Z" style="fill:rgb(10,29,87);stroke:rgb(10,29,87);stroke-width:1.25px;"/>
            </g>
            <g transform="matrix(0,1,-1,0,3466,1720)">
                <path d="M502,332L479,391C493.418,385.144 508.99,384.701 526,391L502,332Z" style="fill:rgb(10,29,87);stroke:rgb(10,29,87);stroke-width:1.25px;"/>
            </g>
        </g>
    </g>
    <g id="Focus" transform="matrix(1,0,0,1,130,-469)">
        <g id="Focus-Sign" serif:id="Focus Sign" transform="matrix(1,0,0,1,2,-2)">
            <g id="Sign">
                <g transform="matrix(1,0,0,1,409,-651)">
                    <text x="1055.951px" y="2029.204px" style="font-family:'Inter-Bold', 'Inter';font-weight:700;font-size:62.5px;fill:rgb(10,29,87);">PEAK L<tspan x="1274.396px 1319.928px " y="2029.204px 2029.204px ">OA</tspan>D SHIFT<tspan x="1609.753px " y="2029.204px ">S</tspan></text>
                    <text x="1072.751px" y="2104.204px" style="font-family:'Inter-Bold', 'Inter';font-weight:700;font-size:62.5px;fill:rgb(10,29,87);">EARLIER IN CY<tspan x="1514.34px " y="2104.204px ">C</tspan>LE</text>
                    <g transform="matrix(62.5,0,0,62.5,1535.839649,2179.204072)">
                    </g>
                    <text x="1170.788px" y="2179.204px" style="font-family:'Inter-Bold', 'Inter';font-weight:700;font-size:62.5px;fill:rgb(10,29,87);">WHEN FULL</text>
                </g>
                <g transform="matrix(3.642458,0,0,1.369668,-3804.854749,-473.393365)">
                    <path d="M1617,1302.639L1617,1480.361C1617,1489.544 1614.196,1497 1610.743,1497L1444.257,1497C1440.804,1497 1438,1489.544 1438,1480.361L1438,1302.639C1438,1293.456 1440.804,1286 1444.257,1286L1610.743,1286C1614.196,1286 1617,1293.456 1617,1302.639Z" style="fill:white;fill-opacity:0.18;stroke:rgb(120,156,240);stroke-width:1.51px;stroke-linejoin:miter;stroke-miterlimit:9;"/>
                </g>
            </g>
            <g id="Attention-Arrow" serif:id="Attention Arrow" transform="matrix(0.784273,0.149094,-0.149094,0.784273,414.824495,90.253245)">
                <g transform="matrix(0.407905,-0.913024,0.913024,0.407905,712.469437,1464.837112)">
                    <path d="M502,332L479,391C495.75,389.304 511.76,389.642 526,391L502,332Z" style="fill:rgb(120,156,240);stroke:rgb(120,156,240);stroke-width:1.57px;"/>
                </g>
                <g transform="matrix(1,0,0,1,5.624195,2.756013)">
                    <path d="M1535,1281L1251,1157" style="fill:none;stroke:rgb(120,156,240);stroke-width:5.22px;stroke-linejoin:miter;stroke-miterlimit:9;"/>
                </g>
            </g>
        </g>
        <g id="Focus-Line" serif:id="Focus Line" transform="matrix(1,0,0,1.027053,12,-64.841546)">
            <path d="M1184,1177L1184,2212" style="fill:none;stroke:rgb(120,156,240);stroke-width:4.11px;stroke-linejoin:miter;stroke-miterlimit:9;stroke-dasharray:20.553,20.553,0,0,0,0;"/>
        </g>
    </g>
</svg>
